<?xml version="1.0" encoding="iso-8859-1"?>
<!-- Generator: Adobe Illustrator 19.0.0, SVG Export Plug-In . SVG Version: 6.00 Build 0)  -->
<svg xmlns="http://www.w3.org/2000/svg" xmlns:xlink="http://www.w3.org/1999/xlink" version="1.1" id="Capa_1" x="0px" y="0px" viewBox="0 0 512 512" style="enable-background:new 0 0 512 512;" xml:space="preserve" width="512px" height="512px">
<g>
	<g>
		<rect x="40" y="157" width="16" height="15" fill="#FFFFFF"/>
	</g>
</g>
<g>
	<g>
		<rect x="72" y="157" width="16" height="15" fill="#FFFFFF"/>
	</g>
</g>
<g>
	<g>
		<rect x="104" y="157" width="16" height="15" fill="#FFFFFF"/>
	</g>
</g>
<g>
	<g>
		<rect x="136" y="157" width="16" height="15" fill="#FFFFFF"/>
	</g>
</g>
<g>
	<g>
		<path d="M471,477V285H151v-53.395l40-32V125h-26.365l-16-32H103V20H88v73H43.365l-16,32H0v74.605l40,32V477H0v15h40.5h111H512v-15    H471z M52.635,108h86.729l8.5,17H44.135L52.635,108z M15,140h161v49H15V140z M88,477H55V276h33V477z M136,477h-33V276h33V477z     M136,261H55v-25h81V261z M50.631,221l-21.25-17H162.62l-21.25,17H50.631z M200,477h-49v-33h49V477z M200,429h-49v-33h49V429z     M200,381h-49v-33h49V381z M200,333h-49v-33h49V333z M264,477h-49v-33h49V477z M264,429h-49v-33h49V429z M264,381h-49v-33h49V381z     M264,333h-49v-33h49V333z M328,477h-49v-33h49V477z M328,429h-49v-33h49V429z M328,381h-49v-33h49V381z M328,333h-49v-33h49V333z     M392,477h-49v-33h49V477z M392,429h-49v-33h49V429z M392,381h-49v-33h49V381z M392,333h-49v-33h49V333z M456,477h-49v-33h49V477z     M456,429h-49v-33h49V429z M456,381h-49v-33h49V381z M456,333h-49v-33h49V333z" fill="#FFFFFF"/>
	</g>
</g>
<g>
</g>
<g>
</g>
<g>
</g>
<g>
</g>
<g>
</g>
<g>
</g>
<g>
</g>
<g>
</g>
<g>
</g>
<g>
</g>
<g>
</g>
<g>
</g>
<g>
</g>
<g>
</g>
<g>
</g>
</svg>
