<?xml version="1.0" encoding="UTF-8"?>
<svg width="512px" height="512px" viewBox="0 0 512 512" version="1.1" xmlns="http://www.w3.org/2000/svg" xmlns:xlink="http://www.w3.org/1999/xlink">
    <!-- Generator: Sketch 51.2 (57519) - http://www.bohemiancoding.com/sketch -->
    <title>airplane</title>
    <desc>Created with Sketch.</desc>
    <defs></defs>
    <g id="Page-1" stroke="none" stroke-width="1" fill="none" fill-rule="evenodd">
        <g id="airplane" fill-rule="nonzero">
            <g id="Group" transform="translate(168.000000, 33.000000)" fill="#66757F">
                <path d="M265.229,306.205 C259.517,311.931 250.285,311.931 244.574,306.205 L223.919,285.55 C218.193,279.838 218.193,270.592 223.919,264.895 L265.231,223.583 C270.943,217.871 280.175,217.871 285.886,223.583 L306.541,244.238 C312.267,249.935 312.267,259.182 306.541,264.893 L265.229,306.205 Z" id="Shape"></path>
                <path d="M46.108,87.088 C40.396,92.814 31.164,92.814 25.453,87.088 L4.798,66.433 C-0.928,60.721 -0.928,51.475 4.798,45.778 L46.11,4.466 C51.822,-1.246 61.054,-1.246 66.765,4.466 L87.42,25.121 C93.146,30.818 93.146,40.065 87.42,45.776 L46.108,87.088 Z" id="Shape"></path>
            </g>
            <g id="Group" transform="translate(0.000000, 79.000000)" fill="#3185FC">
                <path d="M24.203,233.5 C53.419,233.5 184.892,248.108 184.892,248.108 C184.892,248.108 199.5,379.58 199.5,408.796 C199.5,438.012 170.284,438.012 155.676,423.404 C141.068,408.796 97.244,335.756 97.244,335.756 C97.244,335.756 24.204,291.932 9.596,277.324 C-5.012,262.716 -5.013,233.5 24.203,233.5" id="Shape"></path>
                <path d="M53.412,0.335 C97.236,-0.234 418.613,14.374 418.613,14.374 C418.613,14.374 432.11,335.751 432.666,379.575 C433.222,423.399 392.319,438.036 376.25,379.59 C360.181,321.143 301.749,131.238 301.749,131.238 C301.749,131.238 97.894,66.728 53.339,56.707 C-5.02,43.589 9.588,0.905 53.412,0.335" id="Shape"></path>
            </g>
            <path d="M389.405,34.947 C418.621,5.731 491.661,-8.877 506.269,5.731 C520.877,20.339 506.269,93.379 477.053,122.595 C447.837,151.811 199.5,385.54 199.5,385.54 C199.5,385.54 104.548,451.276 82.636,429.364 C60.724,407.452 126.46,312.5 126.46,312.5 C126.46,312.5 360.188,64.163 389.405,34.947" id="Shape" fill="#CCD6DD"></path>
            <g id="Group" transform="translate(67.000000, 34.000000)" fill="#66757F">
                <path d="M132.5,278.5 C132.5,278.5 139.804,285.804 74.068,351.54 C8.332,417.276 1.028,409.972 1.028,409.972 C1.028,409.972 -6.276,402.668 59.46,336.932 C125.196,271.196 132.5,278.5 132.5,278.5" id="Shape"></path>
                <path d="M351.621,15.555 C375.826,15.555 395.445,35.174 395.445,59.379 L407.204,59.379 C408.869,54.777 410.053,49.957 410.053,44.771 C410.053,20.566 390.434,0.947 366.229,0.947 C361.043,0.947 356.207,2.131 351.621,3.796 L351.621,15.555 Z" id="Shape"></path>
            </g>
        </g>
    </g>
</svg>