<?xml version="1.0" encoding="utf-8"?>
<!-- Generator: Adobe Illustrator 22.0.0, SVG Export Plug-In . SVG Version: 6.00 Build 0)  -->
<svg version="1.1" id="Layer_1" xmlns="http://www.w3.org/2000/svg" xmlns:xlink="http://www.w3.org/1999/xlink" x="0px" y="0px"
	 viewBox="0 0 65.6 65.6" style="enable-background:new 0 0 65.6 65.6;" xml:space="preserve">
<style type="text/css">
	.st0{fill:#4E917A;}
	.st1{fill:#FFFFFF;}
	.st2{fill:#E31837;}
</style>
<g>
	<path class="st0" d="M65.6,32.8C65.6,14.7,50.9,0,32.8,0C14.7,0,0,14.7,0,32.8c0,18.1,14.7,32.8,32.8,32.8
		C50.9,65.6,65.6,50.9,65.6,32.8 M32.8,63.4c-16.9,0-30.6-13.7-30.6-30.6S15.9,2.2,32.8,2.2c16.9,0,30.6,13.7,30.6,30.6
		S49.7,63.4,32.8,63.4"/>
	<path class="st0" d="M42.9,7.7c0.1-0.3,0-0.5-0.4-0.6L41,6.5l-0.3,0.9L42.2,8C42.6,8.1,42.8,8,42.9,7.7"/>
	<path class="st0" d="M49.5,51.7l-0.7,0.6l0.4,0.4l0.7-0.6c0.2-0.2,0.2-0.3,0.1-0.4C49.8,51.6,49.7,51.5,49.5,51.7"/>
	<path class="st0" d="M13.8,50.7c-0.4,0.4-0.4,0.9,0,1.2c0.3,0.3,0.8,0.3,1.2,0c0.4-0.4,0.4-0.9,0-1.2
		C14.7,50.3,14.2,50.3,13.8,50.7"/>
	<path class="st0" d="M51.8,13.6c0.2-0.2,0.2-0.5-0.1-0.7l-1.2-1.1l-0.6,0.7l1.2,1.1C51.3,13.8,51.6,13.8,51.8,13.6"/>
	<polygon class="st0" points="46.5,9.5 45.4,10.2 46.4,10.8 	"/>
	<path class="st0" d="M31.1,58.9l-1.1-0.1l-0.1,0.7l1.1,0.1c0.2,0,0.3-0.1,0.4-0.3C31.4,59.1,31.3,58.9,31.1,58.9"/>
	<path class="st0" d="M31.3,58.2c0-0.2,0-0.2-0.3-0.2l-1-0.1l0,0.5l1,0.1C31.2,58.4,31.3,58.3,31.3,58.2"/>
	<path class="st0" d="M8.4,42.2C8.9,42,9.2,41.6,9,41.1c-0.2-0.4-0.6-0.7-1.1-0.5c-0.5,0.2-0.7,0.6-0.5,1.1
		C7.5,42.2,8,42.4,8.4,42.2"/>
	<polygon class="st0" points="28.8,6.1 28.4,7.3 29.5,7.1 	"/>
	<path class="st0" d="M33.9,57.9c-0.5,0-0.8,0.4-0.8,0.9c0,0.5,0.4,0.9,0.9,0.8c0.5,0,0.8-0.4,0.8-0.9
		C34.8,58.3,34.4,57.9,33.9,57.9"/>
	<path class="st0" d="M42.3,56.1c-0.4,0.2-0.6,0.6-0.4,1.1c0.2,0.5,0.7,0.7,1.1,0.5c0.4-0.2,0.6-0.6,0.4-1.1
		C43.2,56.1,42.8,55.9,42.3,56.1"/>
	<path class="st0" d="M32.8,3.1C16.4,3.1,3,16.4,3,32.8c0,16.4,13.3,29.7,29.7,29.7c16.4,0,29.7-13.3,29.7-29.7
		C62.5,16.4,49.2,3.1,32.8,3.1 M57.5,35.1l0.4-0.1l-0.4-0.2l0-0.1l0.5,0l0,0.1l-0.4,0v0L58,35l0,0.1L57.5,35.1l0.5,0.1l0,0.1l-0.5,0
		L57.5,35.1z M57.5,35.3L57.5,35.3l0.1,0.2l0.4,0l0,0.1l-0.4,0l0,0.2l-0.1,0L57.5,35.3z M54.5,14.5l0.5,0.7l-1.5,1.1l2.7,0.6l0.7,1
		l-2.5-0.5l-1,3.3l-0.6-0.9l0.8-2.6l-1-0.2l-1.2,0.9l-0.5-0.7L54.5,14.5z M9.8,32.8c0-12.7,10.3-23,22.9-23
		c12.7,0,22.9,10.3,22.9,23c0,12.7-10.3,22.9-22.9,22.9C20.1,55.7,9.8,45.5,9.8,32.8 M52.3,12.2c0.7,0.6,0.8,1.3,0.2,2
		c-0.4,0.4-1,0.6-1.5,0.4l-0.5,2.1l-0.7-0.7l0.4-2l-0.9-0.9l-1.2,1.3l-0.7-0.6l3-3.3L52.3,12.2z M47.5,8.6l-0.4,4.9L46.3,13l0.1-1.2
		l-1.7-1l-1,0.7l-0.8-0.5l4.1-2.7L47.5,8.6z M40.4,5.4l2.4,0.8c0.8,0.3,1.2,0.9,1,1.7c-0.3,0.7-0.9,1.1-1.8,0.8l-1.6-0.6l-0.6,1.7
		l-0.8-0.3L40.4,5.4z M32.3,4.4L33.6,6L35,4.5l1.1,0L34,6.8L34,8.9l-0.9,0l0.1-2.1l-2-2.4L32.3,4.4z M28.3,4.8l0.7-0.1l2.8,4.1
		l-1,0.1l-0.7-1l-2,0.3l-0.4,1.2l-1,0.1L28.3,4.8z M20.6,7.1l1.8,2.2l-0.1-2.9L23,6.2l1.8,2.2l-0.2-2.8l0.8-0.3l0.2,4.7l-0.6,0.2
		l-1.9-2.3l0.2,3L22.8,11l-3-3.6L20.6,7.1z M15.9,10l3.5,0.9l-1.5-2.3l0.7-0.5l2.5,3.7l-0.4,0.3l-3.5-0.9l1.5,2.3L18,14l-2.5-3.7
		L15.9,10z M14.1,11.4l0.6,0.6l-1.9,1.9l0.6,0.6l1.2-1.2l0.6,0.6L14,15l0.8,0.8l2-2l0.6,0.6L14.8,17l-3.1-3.1L14.1,11.4z M10.7,14.9
		l0.7,0.5l-1.5,2.2l0.7,0.5l0.9-1.3l0.7,0.5l-0.9,1.3l1.6,1.1l-0.5,0.7l-3.7-2.5L10.7,14.9z M6.1,39.2l1.2-0.2L7,37.8L5.9,38
		l-0.1-0.5l2.6-0.6l0.1,0.5l-0.9,0.2l0.3,1.2l0.9-0.2l0.1,0.5l-2.6,0.6L6.1,39.2z M6.9,41.9c-0.3-0.7,0.1-1.5,0.8-1.7
		c0.7-0.3,1.5,0.1,1.7,0.8c0.3,0.7-0.1,1.5-0.8,1.7C7.9,43,7.1,42.6,6.9,41.9 M8.8,46l1.4-0.7L8.7,45l0.7-1.3L8,44.5L7.8,44l2.3-1.2
		l0.2,0.4l-0.8,1.4l1.6,0.2l0.2,0.4L9,46.4L8.8,46z M12.5,47.9l-0.9-1.3l-0.4,0.3l0.5,0.8l-0.4,0.3l-0.5-0.8l-0.5,0.4l1,1.4
		l-0.4,0.3l-1.2-1.8l2.2-1.5l1.2,1.8L12.5,47.9z M13.4,52.2c-0.6-0.6-0.6-1.4,0-1.9c0.6-0.6,1.4-0.6,1.9,0c0.6,0.5,0.6,1.4,0,1.9
		C14.8,52.8,14,52.8,13.4,52.2 M18.1,53.4l-1.2-1l-0.3,0.4l0.8,0.6L17,53.7l-0.8-0.6l-0.7,0.9l-0.4-0.3l1.6-2.1l1.7,1.3L18.1,53.4z
		 M19.9,56.9l-0.5-0.3l1-1.9l-0.9-0.5l0.2-0.4l2.2,1.2l-0.2,0.4l-0.9-0.5L19.9,56.9z M23.3,58.5l-0.5-0.2l0.5-1.1l-1.1-0.5l-0.5,1.1
		l-0.5-0.2l1-2.4l0.5,0.2l-0.4,0.9l1.1,0.5l0.4-0.9l0.5,0.2L23.3,58.5z M27,57.4l-1.5-0.4l-0.1,0.5l0.9,0.3l-0.1,0.5l-0.9-0.3
		L25,58.5l1.6,0.5l-0.1,0.5l-2.1-0.6l0.7-2.5l2,0.6L27,57.4z M30.9,60.1L29.3,60l0.2-2.6l1.5,0.1c0.5,0,0.8,0.3,0.8,0.8
		c0,0.2-0.1,0.3-0.2,0.4c0.2,0.2,0.3,0.4,0.3,0.7C31.9,59.8,31.5,60.1,30.9,60.1 M34,60.2c-0.8,0-1.4-0.5-1.4-1.3
		c0-0.8,0.5-1.4,1.3-1.4c0.8,0,1.4,0.5,1.4,1.3C35.3,59.5,34.8,60.1,34,60.2 M37.4,59.8c-0.5,0.1-0.9,0-1.5-0.3l0.2-0.5
		c0.5,0.2,0.8,0.3,1.2,0.3c0.4-0.1,0.6-0.3,0.6-0.5c0-0.1-0.2-0.3-0.5-0.2c-0.3,0-0.7,0.1-1,0c-0.3-0.1-0.5-0.3-0.5-0.5
		c-0.1-0.5,0.3-0.8,0.9-0.9c0.4-0.1,0.9,0,1.4,0.3l-0.2,0.5c-0.4-0.2-0.7-0.3-1.1-0.2c-0.4,0.1-0.5,0.2-0.5,0.3
		c0,0.2,0.3,0.2,0.5,0.2c0.2,0,0.4,0,0.6-0.1c0.5,0,0.9,0.2,1,0.7C38.5,59.2,38.1,59.7,37.4,59.8 M40.7,59l-0.5,0.1l-0.6-2l-1,0.3
		l-0.1-0.5l2.4-0.7l0.1,0.5l-1,0.3L40.7,59z M43.2,58.2c-0.7,0.3-1.5,0-1.8-0.8c-0.3-0.7,0-1.5,0.7-1.8c0.7-0.3,1.5,0,1.8,0.8
		C44.2,57.1,43.9,57.9,43.2,58.2 M46.9,56.2l-2-0.7l0.8,1.4l-0.5,0.3L44,54.9l0.3-0.2l2,0.7L45.4,54l0.5-0.3l1.3,2.3L46.9,56.2z
		 M51.2,53.1L50,52.6l-0.6,0.5l0.7,0.8l-0.4,0.3l-1.7-2l1.1-1c0.4-0.3,0.8-0.3,1.2,0c0.2,0.3,0.3,0.6,0.1,0.9l1.2,0.4L51.2,53.1z
		 M52.2,52.1l-1.9-1.8l1.4-1.6l0.4,0.3L51,50.3l0.4,0.3l0.7-0.7l0.4,0.3l-0.7,0.7l0.5,0.4l1.1-1.2l0.4,0.3L52.2,52.1z M54.9,48.9
		l-0.7,0.9l-2.1-1.6l0.7-0.9c0.5-0.7,1.3-0.8,1.9-0.3C55.3,47.5,55.4,48.2,54.9,48.9 M57.7,44.2c-0.2,0.4-0.5,0.8-1.1,1.1l-0.3-0.5
		c0.5-0.2,0.7-0.5,0.9-0.8c0.2-0.4,0.1-0.7-0.1-0.7c-0.1-0.1-0.3,0-0.5,0.3c-0.2,0.3-0.3,0.7-0.6,0.9c-0.2,0.2-0.5,0.2-0.7,0.1
		c-0.4-0.2-0.5-0.7-0.3-1.3c0.2-0.4,0.5-0.7,1-1l0.3,0.5c-0.4,0.2-0.7,0.4-0.8,0.7c-0.2,0.3-0.1,0.5,0,0.6c0.2,0.1,0.3-0.2,0.4-0.3
		c0.1-0.1,0.2-0.3,0.3-0.5c0.3-0.5,0.7-0.6,1.1-0.5C57.9,43,58,43.6,57.7,44.2 M58.9,41.2c-0.2,0.7-1,1.1-1.7,0.9
		c-0.8-0.2-1.1-1-0.9-1.7c0.2-0.7,1-1.1,1.7-0.9C58.8,39.7,59.2,40.4,58.9,41.2 M59.5,38.7l-0.1,0.6l-1.1-1.3l-1.5,0.8l0.1-0.6
		l1-0.6l-0.7-0.9l0.1-0.6l1.1,1.3l1.5-0.8l-0.1,0.7l-1,0.6L59.5,38.7z"/>
	<path class="st0" d="M57.9,39.9c-0.5-0.2-0.9,0.1-1.1,0.5c-0.1,0.4,0.1,0.9,0.6,1.1c0.5,0.2,0.9-0.1,1.1-0.5
		C58.6,40.5,58.4,40.1,57.9,39.9"/>
	<path class="st0" d="M54.3,47.4c-0.4-0.3-0.8-0.2-1.2,0.2l-0.4,0.5l1.3,1l0.4-0.5C54.8,48.2,54.7,47.7,54.3,47.4"/>
	<path class="st1" d="M32.8,2.2C15.9,2.2,2.2,15.9,2.2,32.8c0,16.9,13.7,30.6,30.6,30.6c16.9,0,30.6-13.7,30.6-30.6
		C63.4,15.9,49.7,2.2,32.8,2.2 M32.8,62.5C16.4,62.5,3,49.2,3,32.8C3,16.4,16.4,3.1,32.8,3.1c16.4,0,29.7,13.3,29.7,29.7
		C62.5,49.2,49.2,62.5,32.8,62.5"/>
	<path class="st1" d="M15.1,26.6v-4.4h1.6V22h-0.3v-1.1h4.4v0.9H21h2.4v-0.3h0.1c0.2,0,0.6-0.2,0.7-0.5c0-0.1,0.1-0.2,0.1-0.4
		c0-0.3,0-0.6,0.4-0.7h-0.1v-0.7h1.4v-0.3l5.3-0.2l-0.1-0.5h3.1l-0.1,0.5l5.3,0.2v0.3H41v0.7h-0.1c0.3,0.1,0.4,0.5,0.4,0.7
		c0,0.1,0,0.3,0.1,0.4c0.1,0.3,0.5,0.5,0.7,0.5h0.1v0.3h2h0.6v-0.9h4.4V22h-0.3v0.2h1.6v4.4l3.5,1.2C51.6,18.2,43,11.1,32.8,11.1
		c-10.2,0-18.8,7.1-21.1,16.6L15.1,26.6z M38.8,14.7c0.4,0,0.6,0.2,0.6,0.5c0,0.3-0.4,0.4-0.6,0.5c-0.3,0.1-0.4,0.2-0.4,0.3l1.1,0
		v0.3H38c0-0.2,0-0.2,0-0.3c0-0.6,0.5-0.6,1-0.8c0.1,0,0.1-0.1,0.1-0.1c0-0.1-0.1-0.2-0.3-0.2c-0.2,0-0.3,0.1-0.6,0.2L38,15
		C38.3,14.8,38.5,14.7,38.8,14.7 M36.8,14.7h0.3v1.6h-0.3V14.7z M35.2,14.7c0.4,0,0.9,0.2,0.9,0.6c0,0.3,0,0.6-0.2,0.8
		c-0.2,0.3-0.6,0.3-0.7,0.3c-0.1,0-0.5,0-0.8-0.3l0.2-0.2c0.2,0.2,0.5,0.2,0.6,0.2c0.1,0,0.3,0,0.5-0.2c0,0,0.1-0.1,0.1-0.2
		c-0.2,0.1-0.5,0.1-0.6,0.1c-0.4,0-0.8-0.2-0.8-0.5C34.4,14.9,34.8,14.7,35.2,14.7 M33.3,14.7h0.3v1.6h-0.3V14.7z M30.9,15.9
		c0.1,0,0.2,0.1,0.2,0.2c0,0.1-0.1,0.2-0.2,0.2c-0.1,0-0.2-0.1-0.2-0.2C30.8,16,30.8,15.9,30.9,15.9 M29.2,14.6h1.6v0.3h-0.6v1.3
		h-0.3v-1.3h-0.6V14.6z M28.4,15.6c-0.2,0-0.5,0-0.6-0.1c-0.2-0.1-0.3-0.2-0.3-0.4c0-0.3,0.3-0.5,0.7-0.5c0.3,0,0.5,0.1,0.8,0.3
		l-0.2,0.3c-0.2-0.2-0.4-0.3-0.6-0.3c-0.2,0-0.3,0.1-0.3,0.2c0,0.1,0.2,0.1,0.3,0.1c0.1,0,0.2,0,0.4,0c0.3,0,0.6,0.2,0.6,0.5
		c0,0.3-0.3,0.6-0.7,0.6c-0.3,0-0.6-0.1-0.9-0.3l0.2-0.3c0.3,0.2,0.5,0.3,0.7,0.3c0.3,0,0.4-0.1,0.4-0.2
		C28.7,15.7,28.6,15.6,28.4,15.6 M25.7,14.6H27v0.3h-1v0.3h0.6v0.3H26V16h1.1v0.3h-1.4V14.6z"/>
	<path class="st1" d="M50.4,44.3h-0.2h-1.6h-0.4h-2.9h-0.2h-0.7h-0.4h-0.2h-4h-0.2h-0.4h-0.9H38h-0.2h-4h-0.2h-0.4h-0.9h-0.4h-0.2
		h-4h-0.2h-0.4h-0.9h-0.4h-0.2h-4h-0.2H21h-0.7h-0.2h-2.9h-0.4h-1.5h-0.2h-0.7c3.8,6.1,10.7,10.2,18.4,10.2s14.6-4.1,18.4-10.2H50.4
		z M37.4,51.6c-0.6,0.4-1.7,0.3-2.3,0.1c-0.4-0.1-1.1-0.3-1.6-0.3l-0.1-0.1l-0.1-0.1c-0.1-0.4,0-0.9,0-0.9c-0.2-0.1-0.7-0.2-0.9-0.3
		c0,0.1,0,0.2-0.1,0.4c-0.1-0.1-0.1-0.2-0.1-0.3c0-0.3,0.1-0.6,0.4-1.3c0-0.1,0.1-0.2,0.2-0.4c0.2-0.3,0.3-0.6,0.3-0.9
		c0-0.1,0-0.2-0.1-0.3c0-0.1,0.3-0.7,0.3-0.7c0,0,0-0.1,0-0.1c0,0,0-0.1,0-0.1l-0.1-0.8l-0.1,0l0,0.1l0.1,0.6c0,0-0.1-0.1-0.1-0.1
		l0,0L33,45.6l-0.1-0.1l-0.1,0.1l0.1,0.4c0,0-0.1,0-0.1,0l0-0.4l-0.1-0.1l-0.1,0.1l0,0.3c0,0-0.1,0-0.1-0.1l0-0.2l-0.1,0l0,0.1
		l0,0.2c-0.1,0-0.1,0-0.2-0.1l0-0.1l0,0l0,0l0,0.1c-0.1,0-0.2-0.1-0.2-0.1c0-0.1,0.1-0.2,0.2-0.2l1.2-0.2c0.1,0,0.3,0.1,0.3,0.2
		l0.1,0.8c0.4,0.3,0.4,0.5,0.5,2.2c0.1,1.9,1.6,1.1,2.4,1.7C37.4,50.7,37.6,51.5,37.4,51.6 M34.3,53.2c-1,0.3-1.3,0.1-1.5,0
		c-0.8-0.3-1.7-1.1-2.5-1.3c-1.4-0.2-1.3-1.2-0.7-1.9c0.4-0.5,0.6-1.3,1-2.3c0.2-0.7,0.4-1,0.6-1.1l0.3-0.8c0-0.1,0.2-0.2,0.3-0.1
		l1.2,0.4c0.1,0,0.2,0.2,0.1,0.3l-0.3,0.8c0.3,0.4-0.2,1-0.4,1.5c-0.4,1.1-0.6,1.6-0.1,1.9c0.5,0.3,0.8,0.6,0.9,0.7
		C34.5,52.2,34.5,53.2,34.3,53.2 M21.4,48h7.7v0.2h-7.7V48z M36.5,52.1L36.5,52.1l0,0.1h0L36.5,52.1h-0.1v0L36.5,52.1L36.5,52.1z
		 M36.7,52.2L36.7,52.2L36.7,52.2L36.7,52.2L36.7,52.2l-0.1-0.1v0.1h0v-0.1h0L36.7,52.2l0-0.1h0V52.2z M44.6,48.3h-9.1V48h9.1V48.3z
		"/>
	<path class="st1" d="M35.2,15.5c0.3,0,0.6-0.1,0.6-0.2C35.7,15,35.3,15,35.2,15c-0.2,0-0.5,0.1-0.5,0.3
		C34.7,15.4,35,15.5,35.2,15.5"/>
	<path class="st1" d="M14.2,44.1h0.8v-0.9V43v-0.5V26.8l-3.5,1.2c-0.4,1.6-0.5,3.2-0.5,4.8C11.1,36.9,12.2,40.8,14.2,44.1 M14,28.6
		V33l-0.9-1.3l-0.8,1.4v-3.9L14,28.6z"/>
	<path class="st1" d="M54,28l-3.5-1.2v17.3h0.9c2-3.3,3.2-7.2,3.2-11.3C54.5,31.1,54.3,29.5,54,28 M52.6,31.7L51.7,33v-4.3l1.7,0.6
		v3.9L52.6,31.7z"/>
	<path class="st1" d="M32.8,55.7c12.7,0,22.9-10.3,22.9-22.9c0-12.7-10.3-23-22.9-23c-12.7,0-23,10.3-23,23
		C9.8,45.5,20.1,55.7,32.8,55.7 M10.8,32.8c0-12.1,9.8-21.9,21.9-21.9c12.1,0,21.9,9.8,21.9,21.9c0,12.1-9.8,21.9-21.9,21.9
		C20.7,54.7,10.8,44.9,10.8,32.8"/>
	<path class="st0" d="M32.8,54.7c12.1,0,21.9-9.8,21.9-21.9c0-12.1-9.8-21.9-21.9-21.9c-12.1,0-21.9,9.8-21.9,21.9
		C10.8,44.9,20.7,54.7,32.8,54.7 M32.8,11.1c10.2,0,18.8,7.1,21.1,16.7l-3.5-1.2v-4.4h-1.6V22h0.3v-1.1h-4.4v0.9h-0.6h-2v-0.3H42
		c-0.2,0-0.6-0.2-0.7-0.5c0-0.1,0-0.2-0.1-0.4c0-0.3,0-0.6-0.4-0.7H41v-0.7h-1.4v-0.3l-5.3-0.2l0.1-0.4h-3.1l0.1,0.4l-5.3,0.2v0.3
		h-1.4v0.7h0.1c-0.3,0.1-0.4,0.5-0.4,0.7c0,0.1,0,0.3-0.1,0.4c-0.1,0.3-0.5,0.5-0.7,0.5h-0.1v0.3H21h-0.2v-0.9h-4.4V22h0.3v0.2h-1.6
		v4.4l-3.4,1.1C14,18.2,22.6,11.1,32.8,11.1 M32.8,54.5c-7.7,0-14.6-4.1-18.4-10.2h0.7h0.2h1.5h0.4h2.9h0.2H21h0.4h0.2h4h0.2h0.4
		h0.9h0.4h0.2h4h0.2h0.4h0.9h0.4h0.2h4H38h0.4h0.9h0.4h0.2h4h0.2h0.4h0.7h0.2h2.9h0.4h1.6h0.2h0.8C47.3,50.4,40.5,54.5,32.8,54.5
		 M15.3,43.2h1.4h0.2v0.9h-1.5V43.2z M16.9,22h3.2v0.2h-2.9H17h-0.1V22z M20.6,21.8h-0.2h0h-0.1h-3.6h-0.1v-0.7h4V21.8z M31.4,18.4
		H34l-0.1,0.8h-1.1h-0.2h-1.1L31.4,18.4z M39.3,19.2L39.3,19.2H39h-4.9l0.1-0.3l5.1,0.2V19.2z M41.9,21.8h-1.2v-1.7
		c0.2,0,0.3,0.2,0.3,0.6c0,0.2,0,0.3,0.1,0.4C41.2,21.4,41.6,21.7,41.9,21.8L41.9,21.8z M48.6,22.2L48.6,22.2h-0.3h-2.8h-0.1V22h0.1
		h3.1V22.2z M25,19.9h1.2v1.9H25V19.9z M50.2,43h-1.4v-0.3h1.4V43z M40,39.9v-0.2h3.6v0.2H42V44h-0.2v-4.1H40z M33.9,39.9v-0.2h3.6
		v0.2h-1.7V44h-0.2v-4.1H33.9z M27.8,39.9v-0.2h3.6v0.2h-1.7V44h-0.2v-4.1H27.8z M21.8,39.9v-0.2h3.6v0.2h-1.7V44h-0.2v-4.1H21.8z
		 M26.4,19.9v-0.2v-0.3h4.9h1.2h0.3h1.2H39v0.3v0.2V22v0.6H26.4V22V19.9z M48.3,42.4h-0.7v-3.5l-0.8-0.6L46,38.9v3.5h-0.7V25.7v-0.9
		V24v-0.9v-0.5v-0.3h0.1h2.8V42.4z M48.6,43h-0.3h-2.9v-0.3h3.2V43z M47.3,42.4h-1.1V39l0.6-0.4l0.6,0.4V42.4z M20.3,25.7h24.8v16.7
		h-0.7v-4.6l0.2-0.2l-0.1-0.1c-0.4-0.4-1.2-0.7-1.9-0.9l0-0.2H41l0,0.2c-0.8,0.1-1.5,0.5-1.9,0.9l-0.1,0.1l0.2,0.2v4.6h-0.9v-4.6
		l0.2-0.2l-0.1-0.1c-0.4-0.4-1.2-0.7-1.9-0.9l0-0.2h-1.7l0,0.2c-0.8,0.1-1.5,0.5-1.9,0.9L33,37.6l0.2,0.2v4.6h-0.9v-4.6l0.2-0.2
		l-0.1-0.1c-0.4-0.4-1.2-0.7-1.9-0.9l0-0.2h-1.7l0,0.2c-0.8,0.1-1.5,0.5-1.9,0.9l-0.1,0.1l0.2,0.2v4.6h-0.9v-4.6l0.2-0.2l-0.1-0.1
		c-0.4-0.4-1.2-0.7-1.9-0.9l0-0.2h-1.7l0,0.2c-0.8,0.1-1.5,0.5-1.9,0.9l-0.1,0.1l0.2,0.2v4.6h-0.7V25.7z M20.3,24.5v-0.3l0.9,0.1
		L20.3,24.5z M21.9,24.5v-0.2L20.3,24v-0.3h24.8V24l-1.6,0.2v0.2l1.6,0.2v0.4H20.3v-0.4L21.9,24.5z M45.1,23.1H20.3v-0.3h5.9h13h5.9
		V23.1z M45.1,23.5H20.3v-0.2h24.8V23.5z M45.1,24.3v0.3l-0.9-0.1L45.1,24.3z M20.3,25.3h24.8v0.2H20.3V25.3z M39.4,37.6
		c0.4-0.3,1.1-0.6,1.7-0.8l0.2,0.7c-0.5,0.1-1,0.3-1.5,0.6L39.4,37.6z M41.3,36.6h1.2l-0.2,0.9c-0.1,0-0.3,0-0.4,0
		c-0.1,0-0.3,0-0.4,0L41.3,36.6z M42.5,37.5l0.1-0.7c0.7,0.1,1.3,0.4,1.7,0.8l-0.4,0.5C43.5,37.8,43,37.6,42.5,37.5 M39.5,38.1
		l0.2,0.2v4.2h-0.2V38.1z M44.1,38.3l0.2-0.2v4.4h-0.2V38.3z M33.3,37.6c0.4-0.3,1.1-0.6,1.7-0.8l0.1,0.7c-0.5,0.1-1,0.3-1.5,0.6
		L33.3,37.6z M35.2,36.6h1.2l-0.2,0.9c-0.1,0-0.3,0-0.4,0c-0.1,0-0.3,0-0.4,0L35.2,36.6z M36.4,37.5l0.1-0.7
		c0.7,0.1,1.3,0.4,1.7,0.8l-0.4,0.5C37.4,37.8,36.9,37.6,36.4,37.5 M33.4,38.1l0.2,0.2v4.2h-0.2V38.1z M38,38.3l0.2-0.2v4.4H38V38.3
		z M31.7,38.1c-0.4-0.3-0.9-0.5-1.5-0.6l0.1-0.7c0.7,0.1,1.3,0.4,1.7,0.8L31.7,38.1z M27.2,37.6c0.4-0.3,1.1-0.6,1.7-0.8l0.1,0.7
		c-0.5,0.1-1,0.3-1.5,0.6L27.2,37.6z M29.1,36.6h1.2l-0.2,0.9c-0.1,0-0.3,0-0.4,0c-0.1,0-0.3,0-0.4,0L29.1,36.6z M27.3,38.1l0.2,0.2
		v4.2h-0.2V38.1z M25.7,38.1c-0.5-0.3-0.9-0.5-1.5-0.6l0.1-0.7c0.7,0.1,1.3,0.4,1.7,0.8L25.7,38.1z M21.1,37.6
		c0.4-0.3,1.1-0.6,1.7-0.8l0.1,0.7c-0.5,0.1-1,0.3-1.5,0.6L21.1,37.6z M23,36.6h1.2L24,37.5c-0.1,0-0.3,0-0.4,0c-0.1,0-0.3,0-0.4,0
		L23,36.6z M21.2,42.4v-4.4l0.2,0.2v4.2H21.2z M25.8,38.3l0.2-0.2v4.4h-0.2V38.3z M31.9,38.3l0.2-0.2v4.4h-0.2V38.3z M19.2,42.4
		h-1.1V39l0.6-0.4l0.6,0.4V42.4z M20.3,42.8v-0.2h1V43h-1V42.8z M25.8,42.6h1.7V43h-1.7V42.6z M31.9,42.6h1.7V43h-1.7V42.6z
		 M38,42.6h1.7V43H38V42.6z M44.1,42.6h1.1v0.2V43h-1.1V42.6z M45.1,22.7h-5.9v-0.3h5.9V22.7z M26.2,22.7h-5.9v-0.3h5.9V22.7z
		 M20.1,22.7v0.5V24v0.8v0.9v16.7h-0.7v-3.5l-0.8-0.6l-0.8,0.6v3.5h-0.7v-20h2.9V22.7z M20.1,42.6V43h-2.9h-0.3v-0.3H20.1z
		 M21.8,38.3h3.6v0.2h-3.6V38.3z M27.8,38.3h3.6v0.2h-3.6V38.3z M33.9,38.3h3.6v0.2h-3.6V38.3z M40,38.3h3.6v0.2H40V38.3z
		 M40.5,21.8h-1.3v-1.9h1.3V21.8z M17,43.2h3.1v0.9H17V43.2z M20.3,43.2h1v0.9h-0.2h-0.9V43.2z M25.8,43.2h1.7v0.9h-0.2H26h-0.2
		V43.2z M31.9,43.2h1.7v0.9h-0.2h-1.3h-0.2V43.2z M38,43.2h1.7v0.9h-0.2h-1.3H38V43.2z M44.1,43.2h1.1v0.9h-0.9h-0.2V43.2z
		 M45.4,43.2h3.1v0.9h-3.1V43.2z M48.7,43.2h0.2h1.4v0.9h-1.5V43.2z M50.2,42.4h-1.4h-0.2h-0.1v-20h0.3h1.4V42.4z M45.2,21.8
		L45.2,21.8h-0.2v-0.7h4v0.7h-0.1h-3.3H45.2z M45.2,22v0.2h0h-5.9V22h1.3h0.2h1.4h2h0.8H45.2z M39.3,19.7v-0.3h0.3h1.2v0.3h0H39.3z
		 M31.3,19.2h-4.9h-0.2h-0.1v-0.1l5.1-0.2L31.3,19.2z M26.2,19.7h-1.5h0v-0.3h1.2h0.3V19.7z M24.8,21.8h-1.2v-0.1
		c0.3,0,0.7-0.3,0.8-0.6c0.1-0.1,0.1-0.3,0.1-0.4c0-0.3,0-0.5,0.3-0.6V21.8z M25,22h1.2v0.2h-5.9h0V22h0.2H21h2.4h1.4H25z M17,42.4
		L17,42.4h-0.3h-1.4V26.5v-4.1h1.4H17V42.4z M15.3,42.6h1.4V43h-1.4V42.6z M50.4,44.1V26.8L54,28c0.3,1.5,0.5,3.2,0.5,4.8
		c0,4.1-1.2,8-3.2,11.3H50.4z M15.1,26.8v15.6V43v0.2v0.9h-0.8c-2-3.3-3.2-7.2-3.2-11.3c0-1.7,0.2-3.3,0.5-4.8L15.1,26.8z"/>
	<polygon class="st1" points="13.8,32.3 13.8,28.9 12.5,29.4 12.5,32.3 13.1,31.3 	"/>
	<path class="st0" d="M13.1,31.7L14,33v-4.3l-1.7,0.6v3.9L13.1,31.7z M12.5,29.4l1.2-0.4v3.3l-0.7-1l-0.6,1V29.4z"/>
	<polygon class="st1" points="51.9,32.3 52.6,31.3 53.1,32.3 53.1,29.4 51.9,28.9 	"/>
	<path class="st0" d="M51.7,28.6V33l0.9-1.3l0.8,1.4v-3.9L51.7,28.6z M53.1,32.3l-0.6-1l-0.7,1v-3.3l1.2,0.4V32.3z"/>
	<path class="st1" d="M21,37.8l-0.2-0.2l0.1-0.1c0.4-0.4,1.1-0.7,1.9-0.9l0-0.2h1.7l0,0.2c0.8,0.1,1.5,0.5,1.9,0.9l0.1,0.1l-0.2,0.2
		v4.6h0.9v-4.6l-0.2-0.2l0.1-0.1c0.4-0.4,1.2-0.7,1.9-0.9l0-0.2h1.7l0,0.2c0.8,0.1,1.5,0.5,1.9,0.9l0.1,0.1l-0.2,0.2v4.6h0.9v-4.6
		L33,37.6l0.1-0.1c0.4-0.4,1.2-0.7,1.9-0.9l0-0.2h1.7l0,0.2c0.8,0.1,1.5,0.5,1.9,0.9l0.1,0.1l-0.2,0.2v4.6h0.9v-4.6l-0.2-0.2
		l0.1-0.1c0.4-0.4,1.1-0.7,1.9-0.9l0-0.2h1.7l0,0.2c0.8,0.1,1.5,0.5,1.9,0.9l0.1,0.1l-0.2,0.2v4.6h0.7V25.7H20.3v16.7H21V37.8z
		 M38.9,31.4h0.4v-5h5v5h0.5v0.7h-5.9V31.4z M38.9,35h0.3v-1.4h-0.3v-0.7h5.9v0.7h-0.4V35h0.4v0.7h-5.9V35z M32.8,31.4h0.4v-5h5v5
		h0.5v0.7h-5.9V31.4z M32.8,35h0.3v-1.4h-0.3v-0.7h5.9v0.7h-0.4V35h0.4v0.7h-5.9V35z M26.7,31.4h0.5v-5h5v5h0.5v0.7h-5.9V31.4z
		 M26.7,35h0.3v-1.4h-0.3v-0.7h5.9v0.7h-0.3V35h0.3v0.7h-5.9V35z M20.6,31.4h0.5v-5h5v5h0.4v0.7h-5.9V31.4z M20.6,35H21v-1.4h-0.3
		v-0.7h5.9v0.7h-0.3V35h0.3v0.7h-5.9V35z"/>
	<polygon class="st1" points="26.2,22.9 20.3,22.9 20.3,23.1 45.1,23.1 45.1,22.9 39.3,22.9 	"/>
	<rect x="20.3" y="25.3" class="st1" width="24.8" height="0.2"/>
	<rect x="20.3" y="23.3" class="st1" width="24.8" height="0.2"/>
	<path class="st1" d="M45.1,25.1v-0.4l-1.6-0.2v-0.2l1.6-0.2v-0.3H20.3V24l1.6,0.2v0.2l-1.6,0.2v0.4H45.1z M23,23.9L23,23.9l0.9,0.4
		l0.8-0.4h0.1l0.8,0.4l0.8-0.4h0.1l0.8,0.4l0.8-0.4h0.1l0.8,0.4l0.8-0.4h0.1l0.8,0.4l0.8-0.4h0.1l0.8,0.4l0.8-0.4h0.1l0.8,0.4
		l0.8-0.4h0.1l0.8,0.4l0.8-0.4h0.1l0.8,0.4l0.8-0.4H39l0.8,0.4l0.8-0.4h0.1l0.8,0.4l0.8-0.4h0.1l0.9,0.4v0.2l-0.9,0.4h-0.1l-0.8-0.4
		l-0.8,0.4h-0.1l-0.8-0.4L39,24.9h-0.1l-0.8-0.4l-0.8,0.4h-0.1l-0.8-0.4l-0.8,0.4h-0.1l-0.8-0.4l-0.8,0.4h-0.1l-0.8-0.4l-0.8,0.4
		h-0.1L31,24.5l-0.8,0.4h-0.1l-0.8-0.4l-0.8,0.4h-0.1l-0.8-0.4l-0.8,0.4h-0.1l-0.8-0.4l-0.8,0.4h-0.1l-0.8-0.4l-0.8,0.4H23l-0.9-0.4
		v-0.2L23,23.9z"/>
	<polygon class="st1" points="20.3,24.5 21.2,24.4 20.3,24.3 	"/>
	<polygon class="st1" points="45.1,24.3 44.3,24.4 45.1,24.5 	"/>
	<polygon class="st1" points="17.2,22.2 20.1,22.2 20.1,22 16.9,22 16.9,22.2 17,22.2 	"/>
	<rect x="20.8" y="31.6" class="st1" width="5.5" height="0.3"/>
	<path class="st0" d="M26.5,31.4h-0.4v-5h-5v5h-0.5v0.7h5.9V31.4z M21.4,29.4h1.4v-1.2h-1.4V28h1.4v-1.4H23V28h1.3v-1.4h0.2V28h1.4
		v0.2h-1.4v1.2h1.4v0.2h-1.4v1.5h-0.2v-2.9H23v2.9h-0.2v-1.5h-1.4V29.4z M26.3,31.9h-5.5v-0.3h5.5V31.9z"/>
	<rect x="26.9" y="31.6" class="st1" width="5.5" height="0.3"/>
	<path class="st0" d="M32.6,31.4h-0.5v-5h-5v5h-0.5v0.7h5.9V31.4z M27.4,29.4h1.4v-1.2h-1.4V28h1.4v-1.4H29V28h1.3v-1.4h0.2V28h1.4
		v0.2h-1.4v1.2h1.4v0.2h-1.4v1.5h-0.2v-2.9H29v2.9h-0.2v-1.5h-1.4V29.4z M32.4,31.9h-5.5v-0.3h5.5V31.9z"/>
	<rect x="33" y="31.6" class="st1" width="5.5" height="0.3"/>
	<path class="st0" d="M38.7,31.4h-0.5v-5h-5v5h-0.4v0.7h5.9V31.4z M33.5,29.4h1.4v-1.2h-1.4V28h1.4v-1.4h0.2V28h1.3v-1.4h0.2V28H38
		v0.2h-1.4v1.2H38v0.2h-1.4v1.5h-0.2v-2.9h-1.3v2.9h-0.2v-1.5h-1.4V29.4z M38.5,31.9H33v-0.3h5.5V31.9z"/>
	<rect x="39.1" y="31.6" class="st1" width="5.5" height="0.3"/>
	<path class="st0" d="M44.8,31.4h-0.5v-5h-5v5h-0.4v0.7h5.9V31.4z M39.6,29.4H41v-1.2h-1.4V28H41v-1.4h0.2V28h1.3v-1.4h0.2V28h1.4
		v0.2h-1.4v1.2h1.4v0.2h-1.4v1.5h-0.2v-2.9h-1.3v2.9H41v-1.5h-1.4V29.4z M44.6,31.9h-5.5v-0.3h5.5V31.9z"/>
	<polygon class="st1" points="26.2,33.4 26.3,33.4 26.3,33.1 20.8,33.1 20.8,33.4 21,33.4 	"/>
	<polygon class="st1" points="32.3,33.4 32.4,33.4 32.4,33.1 26.9,33.1 26.9,33.4 27.1,33.4 	"/>
	<polygon class="st1" points="38.4,33.4 38.5,33.4 38.5,33.1 33,33.1 33,33.4 33.2,33.4 	"/>
	<polygon class="st1" points="44.5,33.4 44.6,33.4 44.6,33.1 39.1,33.1 39.1,33.4 39.2,33.4 	"/>
	<polygon class="st1" points="21,35.2 20.8,35.2 20.8,35.5 26.3,35.5 26.3,35.2 26.2,35.2 	"/>
	<path class="st0" d="M26.5,35h-0.3v-1.4h0.3v-0.7h-5.9v0.7H21V35h-0.4v0.7h5.9V35z M26.3,35.5h-5.5v-0.3H21h5.2h0.1V35.5z
		 M20.8,33.1h5.5v0.3h-0.1H21h-0.1V33.1z M23.5,33.8h0.2V35h-0.2V33.8z"/>
	<polygon class="st1" points="27.1,35.2 26.9,35.2 26.9,35.5 32.4,35.5 32.4,35.2 32.3,35.2 	"/>
	<path class="st0" d="M32.6,35h-0.3v-1.4h0.3v-0.7h-5.9v0.7h0.3V35h-0.3v0.7h5.9V35z M32.4,35.5h-5.5v-0.3h0.1h5.2h0.1V35.5z
		 M26.9,33.1h5.5v0.3h-0.1h-5.2h-0.1V33.1z M29.6,33.7h0.2v1.2h-0.2V33.7z"/>
	<polygon class="st1" points="33.2,35.2 33,35.2 33,35.5 38.5,35.5 38.5,35.2 38.4,35.2 	"/>
	<path class="st0" d="M38.7,35h-0.4v-1.4h0.4v-0.7h-5.9v0.7h0.3V35h-0.3v0.7h5.9V35z M38.5,35.5H33v-0.3h0.1h5.2h0.1V35.5z M33,33.1
		h5.5v0.3h-0.1h-5.2H33V33.1z M35.7,33.7h0.2v1.2h-0.2V33.7z"/>
	<polygon class="st1" points="39.2,35.2 39.1,35.2 39.1,35.5 44.6,35.5 44.6,35.2 44.5,35.2 	"/>
	<path class="st0" d="M44.8,35h-0.4v-1.4h0.4v-0.7h-5.9v0.7h0.3V35h-0.3v0.7h5.9V35z M44.6,35.5h-5.5v-0.3h0.1h5.2h0.1V35.5z
		 M39.1,33.1h5.5v0.3h-0.1h-5.2h-0.1V33.1z M41.8,33.7H42v1.2h-0.2V33.7z"/>
	<polygon class="st1" points="26,38.1 25.8,38.3 25.8,42.4 26,42.4 	"/>
	<polygon class="st1" points="21.2,38.1 21.2,42.4 21.4,42.4 21.4,38.3 	"/>
	<path class="st1" d="M23,37.5l-0.1-0.7c-0.7,0.1-1.3,0.4-1.7,0.8l0.4,0.5C21.9,37.8,22.4,37.6,23,37.5"/>
	<path class="st1" d="M26.1,37.6c-0.4-0.4-1.1-0.6-1.7-0.8l-0.1,0.7c0.5,0.1,1,0.3,1.5,0.6L26.1,37.6z"/>
	<path class="st1" d="M23.2,37.5c0.1,0,0.3,0,0.4,0c0.1,0,0.3,0,0.4,0l0.2-0.9H23L23.2,37.5z"/>
	<polygon class="st1" points="27.5,38.3 27.3,38.1 27.3,42.4 27.5,42.4 	"/>
	<polygon class="st1" points="32.1,38.1 31.9,38.3 31.9,42.4 32.1,42.4 	"/>
	<path class="st1" d="M29.1,37.5l-0.1-0.7c-0.7,0.1-1.3,0.4-1.7,0.8l0.4,0.5C28,37.8,28.5,37.6,29.1,37.5"/>
	<path class="st1" d="M32.2,37.6c-0.4-0.4-1.1-0.6-1.7-0.8l-0.2,0.7c0.5,0.1,1,0.3,1.5,0.6L32.2,37.6z"/>
	<path class="st1" d="M29.3,37.5c0.1,0,0.3,0,0.4,0c0.1,0,0.3,0,0.4,0l0.2-0.9h-1.2L29.3,37.5z"/>
	<polygon class="st1" points="38.2,38.1 38,38.3 38,42.4 38.2,42.4 	"/>
	<polygon class="st1" points="33.6,38.3 33.4,38.1 33.4,42.4 33.6,42.4 	"/>
	<path class="st1" d="M35.1,37.5L35,36.8c-0.7,0.1-1.3,0.4-1.7,0.8l0.4,0.5C34.1,37.8,34.6,37.6,35.1,37.5"/>
	<path class="st1" d="M38.3,37.6c-0.4-0.4-1.1-0.6-1.7-0.8l-0.1,0.7c0.5,0.1,1,0.3,1.5,0.6L38.3,37.6z"/>
	<path class="st1" d="M35.4,37.5c0.1,0,0.3,0,0.4,0s0.3,0,0.4,0l0.2-0.9h-1.2L35.4,37.5z"/>
	<polygon class="st1" points="44.2,38.1 44.1,38.3 44.1,42.4 44.2,42.4 	"/>
	<polygon class="st1" points="39.6,38.3 39.5,38.1 39.5,42.4 39.6,42.4 	"/>
	<path class="st1" d="M41.2,37.5l-0.1-0.7c-0.7,0.1-1.3,0.4-1.7,0.8l0.4,0.5C40.2,37.8,40.7,37.6,41.2,37.5"/>
	<path class="st1" d="M44.4,37.6c-0.4-0.4-1.1-0.6-1.7-0.8l-0.1,0.7c0.5,0.1,1,0.3,1.5,0.6L44.4,37.6z"/>
	<path class="st1" d="M41.5,37.5c0.1,0,0.3,0,0.4,0c0.1,0,0.3,0,0.4,0l0.2-0.9h-1.2L41.5,37.5z"/>
	<polygon class="st1" points="45.4,22 45.4,22.2 45.5,22.2 48.3,22.2 48.5,22.2 48.6,22.2 48.6,22 45.5,22 	"/>
	<polygon class="st1" points="21.4,43 21.4,42.6 20.3,42.6 20.3,42.8 20.3,43 	"/>
	<polygon class="st1" points="21.2,44.1 21.4,44.1 21.4,43.2 20.3,43.2 20.3,44.1 	"/>
	<polygon class="st1" points="45.1,43 45.1,42.8 45.1,42.6 44.1,42.6 44.1,43 	"/>
	<polygon class="st1" points="45.1,44.1 45.1,43.2 44.1,43.2 44.1,44.1 44.2,44.1 	"/>
	<rect x="25.8" y="42.6" class="st1" width="1.7" height="0.3"/>
	<polygon class="st1" points="27.3,44.1 27.5,44.1 27.5,43.2 25.8,43.2 25.8,44.1 26,44.1 	"/>
	<rect x="31.9" y="42.6" class="st1" width="1.7" height="0.3"/>
	<polygon class="st1" points="33.4,44.1 33.6,44.1 33.6,43.2 31.9,43.2 31.9,44.1 32.1,44.1 	"/>
	<rect x="38" y="42.6" class="st1" width="1.7" height="0.3"/>
	<polygon class="st1" points="39.5,44.1 39.6,44.1 39.6,43.2 38,43.2 38,44.1 38.2,44.1 	"/>
	<rect x="39.3" y="22.4" class="st1" width="5.9" height="0.3"/>
	<polygon class="st1" points="42.1,22 40.7,22 40.5,22 39.3,22 39.3,22.2 45.1,22.2 45.2,22.2 45.2,22 44.9,22 44.1,22 	"/>
	<polygon class="st1" points="21,22 20.6,22 20.3,22 20.3,22.2 20.3,22.2 26.2,22.2 26.2,22 25,22 24.8,22 23.4,22 	"/>
	<polygon class="st1" points="48.9,21.8 48.9,21.1 44.9,21.1 44.9,21.8 45.1,21.8 45.2,21.8 45.5,21.8 48.8,21.8 	"/>
	<rect x="20.3" y="22.4" class="st1" width="5.9" height="0.3"/>
	<polygon class="st1" points="16.5,21.8 16.7,21.8 20.2,21.8 20.3,21.8 20.3,21.8 20.6,21.8 20.6,21.1 16.5,21.1 	"/>
	<path class="st1" d="M26.4,22.7H39V22v-2.1v-0.2v-0.3h-4.9h-1.2h-0.3h-1.2h-4.9v0.3v0.2V22V22.7z M26.7,19.7h12.1v2.7H26.7V19.7z"
		/>
	<path class="st1" d="M36.7,20.9C36.7,20.8,36.7,20.8,36.7,20.9l-0.4-0.1v0.2h0.3C36.7,20.9,36.7,20.9,36.7,20.9"/>
	<path class="st1" d="M34.7,20.9C34.7,20.8,34.6,20.8,34.7,20.9l-0.4-0.1v0.2h0.3C34.6,20.9,34.7,20.9,34.7,20.9"/>
	<polygon class="st1" points="35.4,20.9 35.3,21.1 35.5,21.1 	"/>
	<polygon class="st1" points="31.9,20.9 31.8,21.1 32,21.1 	"/>
	<path class="st1" d="M38.6,19.9H26.9v2.3h11.7V19.9z M37.2,20.6h0.1v0.3l0.3-0.3h0.2l-0.3,0.3l0.3,0.5h-0.2L37.5,21l-0.1,0.1v0.3
		h-0.1V20.6z M36.2,20.6h0.4c0.1,0,0.2,0.1,0.2,0.2c0,0.1-0.1,0.2-0.2,0.2l0.1,0.3h-0.2l-0.1-0.3h-0.2v0.3h-0.1V20.6z M35.4,20.6
		h0.1l0.4,0.7h-0.2l-0.1-0.2h-0.3l-0.1,0.2H35L35.4,20.6z M34.1,20.6h0.4c0.1,0,0.2,0.1,0.2,0.2c0,0.1-0.1,0.2-0.2,0.2h-0.3v0.3
		h-0.2V20.6z M32.6,20.6l0.2,0.3l0.2-0.3h0.2L33,21.1v0.3h-0.1v-0.3l-0.3-0.4H32.6z M31.9,20.6H32l0.4,0.7h-0.2l-0.1-0.2h-0.3
		l-0.1,0.2h-0.2L31.9,20.6z M30.4,20.6l0.2,0.5l0.2-0.5h0.1l0.2,0.5l0.2-0.5h0.2l-0.3,0.7H31l-0.2-0.5l-0.2,0.5h-0.1l-0.3-0.7H30.4z
		 M29.3,20.6L29.3,20.6l0.5,0.5v-0.5H30v0.7h-0.1l-0.4-0.5v0.5h-0.1V20.6z M28.3,20.6h0.6v0.1h-0.4v0.1h0.3v0.1h-0.3v0.2h0.5v0.1
		h-0.6V20.6z M27.4,20.6H28v0.1h-0.4v0.1h0.3v0.1h-0.3v0.3h-0.1V20.6z"/>
	<path class="st0" d="M26.7,22.4h12.1v-2.7H26.7V22.4z M26.9,19.9h11.7v2.3H26.9V19.9z"/>
	<polygon class="st1" points="24.7,19.5 24.7,19.7 24.8,19.7 26.2,19.7 26.2,19.5 25.9,19.5 	"/>
	<rect x="25" y="19.9" class="st1" width="1.2" height="1.9"/>
	<path class="st1" d="M24.5,20.7c0,0.2,0,0.3-0.1,0.4c-0.1,0.3-0.5,0.6-0.8,0.6v0.1h1.2v-1.7C24.5,20.2,24.5,20.3,24.5,20.7"/>
	<polygon class="st1" points="40.8,19.7 40.8,19.5 39.5,19.5 39.3,19.5 39.3,19.7 40.7,19.7 	"/>
	<rect x="39.3" y="19.9" class="st1" width="1.3" height="1.9"/>
	<path class="st1" d="M41.1,21.1C41,21,41,20.8,41,20.7c0-0.3,0-0.5-0.3-0.6v1.7h1.2v-0.1C41.6,21.7,41.2,21.4,41.1,21.1"/>
	<polygon class="st1" points="26.2,19.2 26.2,19.2 26.4,19.2 31.3,19.2 31.3,18.9 26.2,19.1 	"/>
	<polygon class="st1" points="34.1,19.2 39,19.2 39.3,19.2 39.3,19.2 39.3,19.1 34.2,18.9 	"/>
	<polygon class="st1" points="31.6,19.2 32.6,19.2 32.8,19.2 33.9,19.2 34,18.4 31.4,18.4 	"/>
	<polygon class="st0" points="27.5,21.1 27.8,21.1 27.8,20.9 27.5,20.9 27.5,20.8 28,20.8 28,20.6 27.4,20.6 27.4,21.4 27.5,21.4 	
		"/>
	<polygon class="st0" points="28.9,21.3 28.5,21.3 28.5,21.1 28.7,21.1 28.7,20.9 28.5,20.9 28.5,20.8 28.9,20.8 28.9,20.6 
		28.3,20.6 28.3,21.4 28.9,21.4 	"/>
	<polygon class="st0" points="29.5,20.9 29.9,21.4 30,21.4 30,20.6 29.8,20.6 29.8,21.1 29.4,20.6 29.3,20.6 29.3,21.4 29.5,21.4 	
		"/>
	<polygon class="st0" points="30.6,21.4 30.8,20.9 31,21.4 31.1,21.4 31.4,20.6 31.2,20.6 31.1,21.1 30.9,20.6 30.8,20.6 30.6,21.1 
		30.4,20.6 30.3,20.6 30.6,21.4 	"/>
	<path class="st0" d="M31.8,21.2h0.3l0.1,0.2h0.2L32,20.6h-0.1l-0.4,0.7h0.2L31.8,21.2z M31.9,20.9l0.1,0.2h-0.2L31.9,20.9z"/>
	<polygon class="st0" points="32.8,21.4 33,21.4 33,21.1 33.3,20.6 33.1,20.6 32.9,21 32.6,20.6 32.5,20.6 32.8,21.1 	"/>
	<path class="st0" d="M34.3,21.1h0.3c0.1,0,0.2-0.1,0.2-0.2c0-0.1-0.1-0.2-0.2-0.2h-0.4v0.7h0.1V21.1z M34.3,20.8h0.3
		c0.1,0,0.1,0,0.1,0.1c0,0.1,0,0.1-0.1,0.1h-0.3V20.8z"/>
	<path class="st0" d="M35.3,21.2h0.3l0.1,0.2h0.2l-0.4-0.7h-0.1L35,21.4h0.2L35.3,21.2z M35.4,20.9l0.1,0.2h-0.2L35.4,20.9z"/>
	<polygon class="st0" points="37.4,21.1 37.5,21 37.7,21.4 37.9,21.4 37.6,20.9 37.9,20.6 37.7,20.6 37.4,20.9 37.4,20.6 37.2,20.6 
		37.2,21.4 37.4,21.4 	"/>
	<path class="st0" d="M36.3,21.1h0.2l0.1,0.3h0.2l-0.1-0.3c0.1,0,0.2-0.1,0.2-0.2c0-0.1-0.1-0.2-0.2-0.2h-0.4v0.7h0.1V21.1z
		 M36.3,20.8h0.3c0.1,0,0.1,0,0.1,0.1c0,0.1,0,0.1-0.1,0.1h-0.3V20.8z"/>
	<polygon class="st1" points="16.8,43.2 16.7,43.2 15.3,43.2 15.3,44.1 16.8,44.1 	"/>
	<rect x="15.3" y="42.6" class="st1" width="1.4" height="0.3"/>
	<polygon class="st1" points="15.3,22.4 15.3,26.5 15.3,42.4 16.7,42.4 16.9,42.4 17,42.4 17,22.4 16.7,22.4 	"/>
	<path class="st1" d="M17.2,22.4v20h0.7v-3.5l0.8-0.6l0.8,0.6v3.5h0.7V25.7v-0.9V24v-0.9v-0.5v-0.3H17.2z M19.9,25.6h-0.3v12.8
		l-0.8-0.7l-0.9,0.6V25.6h-0.3v-2.5h2.5V25.6z"/>
	<path class="st1" d="M19,25.6l-0.2,1.6h-0.2l-0.2-1.6H18V38l0.7-0.5l0.6,0.5V25.6H19z M18.8,27.5l0.4,1v0.1l-0.4,0.9l0.4,0.9v0.1
		l-0.4,0.9l0.4,0.9v0.1l-0.4,0.9l0.4,0.9v0.1l-0.4,0.9l0.4,0.9v0.1l-0.4,1h-0.2l-0.4-1v-0.1l0.4-0.9l-0.4-0.9v-0.1l0.4-0.9l-0.4-0.9
		v-0.1l0.4-0.9l-0.4-0.9v-0.1l0.4-0.9l-0.4-0.9v-0.1l0.4-1H18.8z"/>
	<polygon class="st1" points="18.7,26.5 18.8,25.6 18.5,25.6 	"/>
	<polygon class="st1" points="18.1,39 18.1,42.4 19.2,42.4 19.2,39 18.7,38.6 	"/>
	<polygon class="st1" points="16.9,42.6 16.9,43 17.2,43 20.1,43 20.1,42.6 	"/>
	<rect x="17" y="43.2" class="st1" width="3.1" height="0.9"/>
	<path class="st1" d="M19.1,25.4h0.6v-2h-2v2h0.7H19.1z M18.6,23.6l0.8,0.8l-0.8,0.8l-0.8-0.8L18.6,23.6z"/>
	<path class="st0" d="M17.4,25.6h0.3v12.8l0.9-0.6l0.8,0.7V25.6h0.3v-2.5h-2.5V25.6z M17.6,23.4h2v2h-0.6h-0.8h-0.7V23.4z
		 M18.7,37.5L18,38V25.6h0.4l0.2,1.6h0.2l0.2-1.6h0.3V38L18.7,37.5z M18.7,26.5l-0.1-0.9h0.3L18.7,26.5z"/>
	<polygon class="st1" points="19.1,24.4 18.6,23.9 18.1,24.4 18.6,24.9 	"/>
	<path class="st0" d="M19.4,24.4l-0.8-0.8l-0.8,0.8l0.8,0.8L19.4,24.4z M18.6,23.9l0.5,0.5l-0.5,0.5l-0.5-0.5L18.6,23.9z"/>
	<polygon class="st1" points="48.5,22.4 48.5,42.4 48.6,42.4 48.8,42.4 50.2,42.4 50.2,22.4 48.8,22.4 	"/>
	<polygon class="st1" points="50.2,43.2 48.8,43.2 48.7,43.2 48.7,44.1 50.2,44.1 	"/>
	<rect x="48.8" y="42.6" class="st1" width="1.4" height="0.3"/>
	<path class="st1" d="M45.4,22.4v0.3v0.5V24v0.8v0.9v16.7H46v-3.5l0.8-0.6l0.8,0.6v3.5h0.7v-20h-2.8H45.4z M45.6,23.2H48v2.5h-0.3
		v12.8l-0.9-0.6l-0.8,0.7V25.6h-0.3V23.2z"/>
	<path class="st1" d="M47.5,25.6h-0.4l-0.2,1.6h-0.2l-0.2-1.6h-0.3V38l0.6-0.5l0.7,0.5V25.6z M46.9,27.5l0.4,1v0.1l-0.4,0.9l0.4,0.9
		v0.1l-0.4,0.9l0.4,0.9v0.1l-0.4,0.9l0.4,0.9v0.1l-0.4,0.9l0.4,0.9v0.1l-0.4,1h-0.2l-0.4-1v-0.1l0.4-0.9l-0.4-0.9v-0.1l0.4-0.9
		l-0.4-0.9v-0.1l0.4-0.9l-0.4-0.9v-0.1l0.4-0.9l-0.4-0.9v-0.1l0.4-1H46.9z"/>
	<path class="st0" d="M45.9,38.4l0.8-0.7l0.9,0.6V25.6H48v-2.5h-2.5v2.5h0.3V38.4z M45.8,23.4h2v2h-0.7h-0.8h-0.6V23.4z M46.1,38
		V25.6h0.3l0.2,1.6h0.2l0.2-1.6h0.4V38l-0.7-0.5L46.1,38z M46.8,26.5l-0.1-0.9h0.3L46.8,26.5z"/>
	<polygon class="st1" points="46.8,26.5 46.9,25.6 46.7,25.6 	"/>
	<polygon class="st1" points="46.2,39 46.2,42.4 47.3,42.4 47.3,39 46.8,38.6 	"/>
	<polygon class="st1" points="45.4,42.6 45.4,43 48.3,43 48.6,43 48.6,42.6 	"/>
	<rect x="45.4" y="43.2" class="st1" width="3.1" height="0.9"/>
	<path class="st1" d="M47.2,25.4h0.7v-2h-2v2h0.6H47.2z M46.8,23.6l0.8,0.8l-0.8,0.8L46,24.4L46.8,23.6z"/>
	<rect x="46.5" y="24.1" transform="matrix(0.705 -0.7092 0.7092 0.705 -3.5015 40.405)" class="st1" width="0.7" height="0.7"/>
	<path class="st0" d="M47.6,24.4l-0.8-0.8L46,24.4l0.8,0.8L47.6,24.4z M46.8,23.9l0.5,0.5l-0.5,0.5l-0.5-0.5L46.8,23.9z"/>
	<polygon class="st1" points="41,31.2 41.2,31.2 41.2,28.2 42.5,28.2 42.5,31.2 42.7,31.2 42.7,29.7 44.1,29.7 44.1,29.4 42.7,29.4 
		42.7,28.2 44.1,28.2 44.1,28 42.7,28 42.7,26.7 42.5,26.7 42.5,28 41.2,28 41.2,26.7 41,26.7 41,28 39.6,28 39.6,28.2 41,28.2 
		41,29.4 39.6,29.4 39.6,29.7 41,29.7 	"/>
	<polygon class="st1" points="34.9,31.2 35.1,31.2 35.1,28.2 36.4,28.2 36.4,31.2 36.6,31.2 36.6,29.7 38,29.7 38,29.4 36.6,29.4 
		36.6,28.2 38,28.2 38,28 36.6,28 36.6,26.7 36.4,26.7 36.4,28 35.1,28 35.1,26.7 34.9,26.7 34.9,28 33.5,28 33.5,28.2 34.9,28.2 
		34.9,29.4 33.5,29.4 33.5,29.7 34.9,29.7 	"/>
	<polygon class="st1" points="28.8,31.2 29,31.2 29,28.2 30.3,28.2 30.3,31.2 30.6,31.2 30.6,29.7 31.9,29.7 31.9,29.4 30.6,29.4 
		30.6,28.2 31.9,28.2 31.9,28 30.6,28 30.6,26.7 30.3,26.7 30.3,28 29,28 29,26.7 28.8,26.7 28.8,28 27.4,28 27.4,28.2 28.8,28.2 
		28.8,29.4 27.4,29.4 27.4,29.7 28.8,29.7 	"/>
	<polygon class="st1" points="22.8,31.2 23,31.2 23,28.2 24.3,28.2 24.3,31.2 24.6,31.2 24.6,29.7 25.9,29.7 25.9,29.4 24.6,29.4 
		24.6,28.2 25.9,28.2 25.9,28 24.6,28 24.6,26.7 24.3,26.7 24.3,28 23,28 23,26.7 22.8,26.7 22.8,28 21.4,28 21.4,28.2 22.8,28.2 
		22.8,29.4 21.4,29.4 21.4,29.7 22.8,29.7 	"/>
	<rect x="23.5" y="33.8" class="st1" width="0.2" height="1.2"/>
	<rect x="29.6" y="33.7" class="st1" width="0.2" height="1.2"/>
	<rect x="35.7" y="33.7" class="st1" width="0.2" height="1.2"/>
	<rect x="41.8" y="33.7" class="st1" width="0.2" height="1.2"/>
	<polygon class="st1" points="23.7,44 23.7,39.9 25.4,39.9 25.4,39.7 21.8,39.7 21.8,39.9 23.5,39.9 23.5,44 	"/>
	<rect x="21.8" y="38.3" class="st1" width="3.6" height="0.2"/>
	<polygon class="st1" points="29.8,44 29.8,39.9 31.5,39.9 31.5,39.7 27.8,39.7 27.8,39.9 29.5,39.9 29.5,44 	"/>
	<rect x="27.8" y="38.3" class="st1" width="3.6" height="0.2"/>
	<polygon class="st1" points="35.8,44 35.8,39.9 37.5,39.9 37.5,39.7 33.9,39.7 33.9,39.9 35.6,39.9 35.6,44 	"/>
	<rect x="33.9" y="38.3" class="st1" width="3.6" height="0.2"/>
	<polygon class="st1" points="42,44 42,39.9 43.7,39.9 43.7,39.7 40,39.7 40,39.9 41.7,39.9 41.7,44 	"/>
	<rect x="40" y="38.3" class="st1" width="3.6" height="0.2"/>
	<polygon class="st1" points="23.6,24.4 23,24.1 22.4,24.4 23,24.7 	"/>
	<path class="st0" d="M23,24.9L23,24.9l0.9-0.4l0.8,0.4h0.1l0.8-0.4l0.8,0.4h0.1l0.8-0.4l0.8,0.4h0.1l0.8-0.4l0.8,0.4h0.1l0.8-0.4
		l0.8,0.4h0.1l0.8-0.4l0.8,0.4h0.1l0.8-0.4l0.8,0.4h0.1l0.8-0.4l0.8,0.4h0.1l0.8-0.4l0.8,0.4H39l0.8-0.4l0.8,0.4h0.1l0.8-0.4
		l0.8,0.4h0.1l0.9-0.4v-0.2l-0.9-0.4h-0.1l-0.8,0.4l-0.8-0.4h-0.1l-0.8,0.4L39,23.9h-0.1l-0.8,0.4l-0.8-0.4h-0.1l-0.8,0.4l-0.8-0.4
		h-0.1l-0.8,0.4l-0.8-0.4h-0.1l-0.8,0.4l-0.8-0.4h-0.1L31,24.3l-0.8-0.4h-0.1l-0.8,0.4l-0.8-0.4h-0.1l-0.8,0.4l-0.8-0.4h-0.1
		l-0.8,0.4l-0.8-0.4h-0.1l-0.8,0.4l-0.8-0.4H23l-0.9,0.4v0.2L23,24.9z M23,24.1l0.6,0.3L23,24.7l-0.6-0.3L23,24.1z M42.5,24.7
		l-0.6-0.3l0.6-0.3l0.6,0.3L42.5,24.7z M40.7,24.7l-0.6-0.3l0.6-0.3l0.6,0.3L40.7,24.7z M39,24.7l-0.6-0.3l0.6-0.3l0.6,0.3L39,24.7z
		 M37.2,24.7l-0.6-0.3l0.6-0.3l0.6,0.3L37.2,24.7z M35.4,24.7l-0.6-0.3l0.6-0.3l0.6,0.3L35.4,24.7z M33.6,24.7l-0.6-0.3l0.6-0.3
		l0.6,0.3L33.6,24.7z M31.9,24.7l-0.6-0.3l0.6-0.3l0.6,0.3L31.9,24.7z M30.1,24.7l-0.6-0.3l0.6-0.3l0.6,0.3L30.1,24.7z M28.3,24.7
		l-0.6-0.3l0.6-0.3l0.6,0.3L28.3,24.7z M26.6,24.7L26,24.4l0.6-0.3l0.6,0.3L26.6,24.7z M24.8,24.7l-0.6-0.3l0.6-0.3l0.6,0.3
		L24.8,24.7z"/>
	<polygon class="st1" points="24.2,24.4 24.8,24.7 25.4,24.4 24.8,24.1 	"/>
	<polygon class="st1" points="26,24.4 26.6,24.7 27.2,24.4 26.6,24.1 	"/>
	<polygon class="st1" points="27.7,24.4 28.3,24.7 28.9,24.4 28.3,24.1 	"/>
	<polygon class="st1" points="29.5,24.4 30.1,24.7 30.7,24.4 30.1,24.1 	"/>
	<polygon class="st1" points="31.3,24.4 31.9,24.7 32.5,24.4 31.9,24.1 	"/>
	<polygon class="st1" points="33.1,24.4 33.6,24.7 34.2,24.4 33.6,24.1 	"/>
	<polygon class="st1" points="34.8,24.4 35.4,24.7 36,24.4 35.4,24.1 	"/>
	<polygon class="st1" points="36.6,24.4 37.2,24.7 37.8,24.4 37.2,24.1 	"/>
	<polygon class="st1" points="38.4,24.4 39,24.7 39.6,24.4 39,24.1 	"/>
	<polygon class="st1" points="40.1,24.4 40.7,24.7 41.3,24.4 40.7,24.1 	"/>
	<polygon class="st1" points="41.9,24.4 42.5,24.7 43.1,24.4 42.5,24.1 	"/>
	<polygon class="st1" points="18.7,35.6 18.4,36.2 18.7,36.9 18.9,36.2 	"/>
	<polygon class="st1" points="18.4,34.3 18.7,34.9 18.9,34.3 18.7,33.6 	"/>
	<polygon class="st1" points="18.4,32.3 18.7,33 18.9,32.3 18.7,31.7 	"/>
	<polygon class="st1" points="18.4,30.4 18.7,31.1 18.9,30.4 18.7,29.8 	"/>
	<polygon class="st1" points="18.4,28.5 18.7,29.1 18.9,28.5 18.7,27.8 	"/>
	<path class="st0" d="M18.2,28.4L18.2,28.4l0.4,1l-0.4,0.9v0.1l0.4,0.9l-0.4,0.9v0.1l0.4,0.9l-0.4,0.9v0.1l0.4,0.9l-0.4,0.9v0.1
		l0.4,1h0.2l0.4-1v-0.1l-0.4-0.9l0.4-0.9v-0.1l-0.4-0.9l0.4-0.9v-0.1l-0.4-0.9l0.4-0.9v-0.1l-0.4-0.9l0.4-0.9v-0.1l-0.4-1h-0.2
		L18.2,28.4z M18.7,36.9l-0.3-0.6l0.3-0.6l0.3,0.6L18.7,36.9z M18.7,34.9l-0.3-0.6l0.3-0.6l0.3,0.6L18.7,34.9z M18.7,33l-0.3-0.6
		l0.3-0.6l0.3,0.6L18.7,33z M18.7,31.1l-0.3-0.6l0.3-0.6l0.3,0.6L18.7,31.1z M18.7,29.1l-0.3-0.6l0.3-0.6l0.3,0.6L18.7,29.1z"/>
	<polygon class="st1" points="46.8,35.6 46.5,36.2 46.8,36.9 47.1,36.2 	"/>
	<polygon class="st1" points="46.5,34.3 46.8,34.9 47.1,34.3 46.8,33.6 	"/>
	<polygon class="st1" points="46.5,32.3 46.8,33 47.1,32.3 46.8,31.7 	"/>
	<polygon class="st1" points="46.5,30.4 46.8,31.1 47.1,30.4 46.8,29.8 	"/>
	<polygon class="st1" points="46.5,28.5 46.8,29.1 47.1,28.5 46.8,27.8 	"/>
	<path class="st0" d="M46.3,28.4L46.3,28.4l0.4,1l-0.4,0.9v0.1l0.4,0.9l-0.4,0.9v0.1l0.4,0.9l-0.4,0.9v0.1l0.4,0.9l-0.4,0.9v0.1
		l0.4,1h0.2l0.4-1v-0.1l-0.4-0.9l0.4-0.9v-0.1l-0.4-0.9l0.4-0.9v-0.1l-0.4-0.9l0.4-0.9v-0.1l-0.4-0.9l0.4-0.9v-0.1l-0.4-1h-0.2
		L46.3,28.4z M46.5,36.2l0.3-0.6l0.3,0.6l-0.3,0.6L46.5,36.2z M46.8,34.9l-0.3-0.6l0.3-0.6l0.3,0.6L46.8,34.9z M46.8,33l-0.3-0.6
		l0.3-0.6l0.3,0.6L46.8,33z M46.8,31.1l-0.3-0.6l0.3-0.6l0.3,0.6L46.8,31.1z M46.8,29.1l-0.3-0.6l0.3-0.6l0.3,0.6L46.8,29.1z"/>
	<polygon class="st1" points="8.7,38.6 7.8,38.8 7.5,37.7 8.5,37.4 8.3,36.9 5.8,37.5 5.9,38 7,37.8 7.3,38.9 6.1,39.2 6.2,39.7 
		8.8,39.1 	"/>
	<path class="st1" d="M8.6,42.7c0.7-0.3,1.1-1,0.8-1.7c-0.3-0.7-1-1.1-1.7-0.8c-0.7,0.3-1.1,1-0.8,1.7C7.1,42.6,7.9,43,8.6,42.7
		 M7.4,41.7c-0.2-0.4,0.1-0.9,0.5-1.1c0.5-0.2,0.9,0,1.1,0.5c0.2,0.4-0.1,0.9-0.5,1.1C8,42.4,7.5,42.2,7.4,41.7"/>
	<polygon class="st1" points="11.1,44.8 9.5,44.6 10.3,43.2 10.1,42.8 7.8,44 8,44.5 9.4,43.7 8.7,45 10.2,45.2 8.8,46 9,46.4 
		11.3,45.2 	"/>
	<polygon class="st1" points="9.6,47.3 10.8,49.2 11.2,48.9 10.3,47.5 10.8,47.1 11.4,47.9 11.8,47.6 11.2,46.8 11.6,46.6 
		12.5,47.9 12.9,47.6 11.7,45.9 	"/>
	<path class="st1" d="M15.4,50.3c-0.6-0.6-1.4-0.5-1.9,0c-0.6,0.6-0.6,1.4,0,1.9c0.6,0.5,1.4,0.5,1.9,0
		C15.9,51.7,15.9,50.8,15.4,50.3 M15,51.8c-0.4,0.4-0.9,0.4-1.2,0c-0.3-0.3-0.3-0.8,0-1.2c0.4-0.4,0.9-0.4,1.2,0
		C15.4,51,15.4,51.5,15,51.8"/>
	<polygon class="st1" points="15.1,53.7 15.6,54.1 16.3,53.2 17,53.7 17.3,53.4 16.6,52.8 16.9,52.4 18.1,53.4 18.4,53 16.8,51.7 	
		"/>
	<polygon class="st1" points="22.1,55.1 19.8,53.9 19.6,54.3 20.5,54.8 19.4,56.7 19.9,56.9 20.9,55.1 21.8,55.6 	"/>
	<polygon class="st1" points="23.5,56.7 22.4,56.3 22.7,55.4 22.3,55.2 21.3,57.6 21.7,57.8 22.2,56.7 23.3,57.2 22.8,58.3 
		23.3,58.5 24.3,56.1 23.8,55.9 	"/>
	<polygon class="st1" points="24.4,58.8 26.5,59.4 26.6,59 25,58.5 25.2,57.9 26.1,58.1 26.3,57.7 25.3,57.4 25.5,56.9 27,57.4 
		27.1,56.9 25.1,56.3 	"/>
	<path class="st1" d="M31.8,58.2c0-0.5-0.2-0.7-0.8-0.8l-1.5-0.1L29.3,60l1.6,0.1c0.6,0,0.9-0.3,1-0.8c0-0.3-0.1-0.5-0.3-0.7
		C31.8,58.5,31.8,58.4,31.8,58.2 M30,57.9l1,0.1c0.2,0,0.3,0.1,0.3,0.2c0,0.1-0.1,0.2-0.3,0.2l-1-0.1L30,57.9z M31,59.6l-1.1-0.1
		l0.1-0.7l1.1,0.1c0.2,0,0.3,0.2,0.3,0.4C31.4,59.5,31.2,59.6,31,59.6"/>
	<path class="st1" d="M33.9,57.4c-0.8,0-1.3,0.6-1.3,1.4c0,0.8,0.6,1.3,1.4,1.3c0.8,0,1.3-0.6,1.3-1.4C35.3,58,34.7,57.4,33.9,57.4
		 M34,59.7c-0.5,0-0.8-0.3-0.9-0.8c0-0.5,0.3-0.9,0.8-0.9c0.5,0,0.8,0.3,0.9,0.8C34.8,59.3,34.5,59.7,34,59.7"/>
	<path class="st1" d="M37.4,58.1c-0.2,0-0.4,0-0.6,0.1c-0.1,0-0.4,0-0.5-0.2c0-0.1,0.1-0.3,0.5-0.3c0.3-0.1,0.6,0,1.1,0.2l0.2-0.5
		c-0.5-0.2-0.9-0.3-1.4-0.3c-0.6,0.1-1,0.5-0.9,0.9c0,0.3,0.2,0.4,0.5,0.5c0.3,0.1,0.7,0,1,0c0.3,0,0.5,0.1,0.5,0.2
		c0,0.2-0.1,0.4-0.6,0.5c-0.3,0.1-0.7,0-1.2-0.3l-0.2,0.5c0.5,0.3,1,0.4,1.5,0.3c0.7-0.1,1.1-0.6,1-1.1C38.4,58.3,38,58.1,37.4,58.1
		"/>
	<polygon class="st1" points="40.9,56.2 38.4,56.9 38.6,57.4 39.6,57.1 40.1,59.1 40.7,59 40.1,57 41,56.7 	"/>
	<path class="st1" d="M42.2,55.6c-0.7,0.3-1,1.1-0.7,1.8c0.3,0.7,1.1,1,1.8,0.8c0.7-0.3,1-1.1,0.7-1.8
		C43.6,55.6,42.9,55.3,42.2,55.6 M43,57.7c-0.4,0.2-0.9,0-1.1-0.5c-0.2-0.5,0-0.9,0.4-1.1c0.4-0.2,0.9,0,1.1,0.5
		C43.6,57,43.4,57.5,43,57.7"/>
	<polygon class="st1" points="45.4,54 46.2,55.4 44.2,54.7 43.9,54.9 45.2,57.2 45.7,56.9 44.9,55.5 46.9,56.2 47.2,56.1 45.9,53.8 
			"/>
	<path class="st1" d="M50.3,51.3c-0.3-0.4-0.8-0.4-1.2,0l-1.1,1l1.7,2l0.4-0.3l-0.7-0.8l0.6-0.5l1.1,0.4l0.4-0.4l-1.2-0.4
		C50.6,51.9,50.6,51.6,50.3,51.3 M49.9,52.1l-0.7,0.6l-0.4-0.4l0.7-0.6c0.2-0.2,0.3-0.1,0.4,0C50.1,51.8,50.1,52,49.9,52.1"/>
	<polygon class="st1" points="52.2,51.4 51.7,50.9 52.4,50.2 52,49.9 51.3,50.6 51,50.3 52.1,49.1 51.7,48.8 50.3,50.3 52.2,52.1 
		53.7,50.5 53.3,50.1 	"/>
	<path class="st1" d="M54.7,47c-0.6-0.4-1.4-0.3-1.9,0.3l-0.7,0.9l2.1,1.6l0.7-0.9C55.4,48.2,55.3,47.5,54.7,47 M54.5,48.6l-0.4,0.5
		l-1.3-1l0.4-0.5c0.3-0.4,0.8-0.5,1.2-0.2C54.7,47.7,54.8,48.2,54.5,48.6"/>
	<path class="st1" d="M57.4,42.8c-0.4-0.2-0.8,0-1.1,0.5c-0.1,0.2-0.2,0.4-0.3,0.5c-0.1,0.1-0.2,0.4-0.4,0.3c-0.1,0-0.2-0.2,0-0.6
		c0.1-0.3,0.4-0.5,0.8-0.7l-0.3-0.5c-0.5,0.3-0.8,0.6-1,1c-0.3,0.5-0.2,1.1,0.3,1.3c0.2,0.1,0.5,0.1,0.7-0.1
		c0.3-0.2,0.4-0.6,0.6-0.9c0.2-0.3,0.4-0.3,0.5-0.3c0.2,0.1,0.3,0.3,0.1,0.7c-0.1,0.3-0.4,0.6-0.9,0.8l0.3,0.5
		c0.5-0.3,0.9-0.6,1.1-1.1C58,43.6,57.9,43,57.4,42.8"/>
	<path class="st1" d="M58,39.4c-0.8-0.2-1.5,0.1-1.7,0.9c-0.2,0.7,0.1,1.5,0.9,1.7c0.8,0.2,1.5-0.1,1.7-0.9
		C59.2,40.4,58.8,39.7,58,39.4 M58.4,41c-0.1,0.4-0.6,0.7-1.1,0.5c-0.5-0.2-0.7-0.6-0.6-1.1c0.1-0.4,0.6-0.7,1.1-0.5
		C58.4,40.1,58.6,40.5,58.4,41"/>
	<polygon class="st1" points="59.9,36.6 58.4,37.4 57.4,36.1 57.2,36.8 58,37.7 56.9,38.2 56.8,38.9 58.3,38.1 59.4,39.4 59.5,38.7 
		58.8,37.8 59.8,37.3 	"/>
	<polygon class="st1" points="12.8,19.6 11.3,18.5 12.2,17.2 11.5,16.7 10.6,18 9.9,17.6 11.4,15.4 10.7,14.9 8.7,17.8 12.3,20.3 	
		"/>
	<polygon class="st1" points="17.4,14.4 16.8,13.8 14.8,15.8 14,15 15.2,13.9 14.6,13.3 13.4,14.4 12.8,13.9 14.7,12 14.1,11.4 
		11.6,13.9 14.8,17 	"/>
	<polygon class="st1" points="18.7,13.5 17.2,11.2 20.7,12.1 21.1,11.9 18.6,8.2 17.9,8.6 19.4,10.9 15.9,10 15.5,10.3 18,14 	"/>
	<polygon class="st1" points="23.4,10.8 23.2,7.8 25.1,10.1 25.7,9.9 25.4,5.2 24.6,5.6 24.8,8.4 23,6.2 22.3,6.5 22.4,9.3 
		20.6,7.1 19.8,7.4 22.8,11 	"/>
	<path class="st1" d="M28.1,8.2l2-0.3l0.7,1l1-0.1l-2.8-4.1l-0.7,0.1l-1.5,4.7l1-0.1L28.1,8.2z M28.8,6.1l0.8,1.1l-1.2,0.2L28.8,6.1
		z"/>
	<polygon class="st1" points="33.1,8.9 34,8.9 34,6.8 36.2,4.5 35,4.5 33.6,6 32.3,4.4 31.1,4.4 33.1,6.7 	"/>
	<path class="st1" d="M40.4,8.2L42,8.8c0.8,0.3,1.5-0.1,1.8-0.8c0.3-0.8-0.1-1.4-1-1.7l-2.4-0.8l-1.5,4.2l0.8,0.3L40.4,8.2z M41,6.5
		l1.5,0.5c0.4,0.1,0.5,0.4,0.4,0.7C42.8,8,42.6,8.1,42.2,8l-1.5-0.5L41,6.5z"/>
	<path class="st1" d="M43.6,11.4l1-0.7l1.7,1L46.3,13l0.8,0.5l0.4-4.9l-0.6-0.3l-4.1,2.7L43.6,11.4z M46.5,9.5l-0.1,1.3l-1-0.6
		L46.5,9.5z"/>
	<path class="st1" d="M48.1,14.4l1.2-1.3l0.9,0.9l-0.4,2l0.7,0.7l0.5-2.1c0.5,0.2,1.1,0.1,1.5-0.4c0.6-0.6,0.5-1.4-0.2-2l-1.9-1.7
		l-3,3.3L48.1,14.4z M50.5,11.7l1.2,1.1c0.3,0.3,0.3,0.5,0.1,0.7c-0.2,0.2-0.4,0.2-0.8,0l-1.2-1.1L50.5,11.7z"/>
	<polygon class="st1" points="51.4,17.9 52.7,16.9 53.7,17.2 52.8,19.7 53.5,20.6 54.5,17.3 57,17.9 56.3,16.9 53.6,16.3 55,15.2 
		54.5,14.5 50.9,17.1 	"/>
	<rect x="21.4" y="48" class="st0" width="7.7" height="0.2"/>
	<rect x="35.6" y="48" class="st0" width="9.1" height="0.2"/>
	<polygon class="st0" points="27.1,16 26,16 26,15.6 26.6,15.6 26.6,15.2 26,15.2 26,14.9 27,14.9 27,14.6 25.7,14.6 25.7,16.3 
		27.1,16.3 	"/>
	<path class="st0" d="M28.3,16c-0.2,0-0.4-0.1-0.7-0.3L27.4,16c0.3,0.2,0.6,0.3,0.9,0.3c0.5,0,0.7-0.2,0.7-0.6
		c0-0.3-0.2-0.5-0.6-0.5c-0.1,0-0.3,0-0.4,0c-0.1,0-0.3,0-0.3-0.1c0-0.1,0.1-0.2,0.3-0.2c0.2,0,0.4,0.1,0.6,0.3l0.2-0.3
		c-0.3-0.2-0.5-0.3-0.8-0.3c-0.4,0-0.7,0.2-0.7,0.5c0,0.2,0.1,0.3,0.3,0.4c0.2,0.1,0.4,0.1,0.6,0.1c0.2,0,0.3,0.1,0.3,0.2
		C28.7,15.9,28.5,16,28.3,16"/>
	<polygon class="st0" points="29.8,16.3 30.2,16.3 30.2,14.9 30.8,14.9 30.8,14.6 29.2,14.6 29.2,14.9 29.8,14.9 	"/>
	<path class="st0" d="M30.9,16.3c0.1,0,0.2-0.1,0.2-0.2c0-0.1-0.1-0.2-0.2-0.2c-0.1,0-0.2,0.1-0.2,0.2
		C30.8,16.2,30.8,16.3,30.9,16.3"/>
	<rect x="33.3" y="14.7" class="st0" width="0.3" height="1.6"/>
	<rect x="36.8" y="14.7" class="st0" width="0.3" height="1.6"/>
	<path class="st0" d="M38.8,15c0.2,0,0.3,0.1,0.3,0.2c0,0,0,0.1-0.1,0.1c-0.4,0.2-1,0.2-1,0.8c0,0,0,0.1,0,0.3h1.4V16l-1.1,0
		c0-0.2,0.1-0.2,0.4-0.3c0.3-0.1,0.6-0.2,0.6-0.5c0-0.3-0.3-0.5-0.6-0.5c-0.3,0-0.5,0.1-0.8,0.3l0.2,0.3C38.4,15.1,38.6,15,38.8,15"
		/>
	<path class="st0" d="M35.2,15.8c0.1,0,0.4,0,0.6-0.1c0,0.1,0,0.1-0.1,0.2c-0.2,0.2-0.4,0.2-0.5,0.2c-0.1,0-0.4,0-0.6-0.2l-0.2,0.3
		c0.3,0.3,0.7,0.3,0.8,0.3c0.1,0,0.5,0,0.7-0.3c0.2-0.2,0.2-0.4,0.2-0.8c-0.1-0.5-0.5-0.6-0.9-0.6c-0.4,0-0.8,0.2-0.8,0.6
		C34.4,15.6,34.8,15.8,35.2,15.8 M35.2,15c0.1,0,0.5,0,0.6,0.3c0,0.1-0.3,0.2-0.6,0.2c-0.2,0-0.5-0.1-0.5-0.2
		C34.7,15.1,35,15,35.2,15"/>
	<polygon class="st1" points="32.2,47.1 32.3,47.1 32.5,46.3 32.5,46.2 32.4,46.3 32.1,47 	"/>
	<polygon class="st1" points="32.4,47.2 32.5,47.2 32.8,46.4 32.7,46.3 32.7,46.3 32.4,47.1 	"/>
	<polygon class="st1" points="32,46 32,46.1 31.7,46.9 31.7,46.9 31.8,46.9 32.1,46.1 	"/>
	<polygon class="st1" points="32.3,46.1 32.2,46.2 31.9,46.9 31.9,47 32,47 32.3,46.2 	"/>
	<polygon class="st1" points="32.6,47.3 32.7,47.3 33,46.4 33,46.4 32.9,46.4 32.6,47.2 	"/>
	<path class="st1" d="M29.5,51.2c0.1,0.2,0.3,0.4,0.8,0.5c0-0.4,0.1-0.7,0.3-1c-0.2-0.1-0.4-0.3-0.7-0.4
		C29.5,50.6,29.4,50.9,29.5,51.2"/>
	<polygon class="st1" points="33.4,45.5 33.4,45.5 33.5,46.4 33.5,46.4 33.6,46.4 33.5,45.5 	"/>
	<path class="st1" d="M36.7,50.6c-0.1,0-0.5,0.2-0.5,0.2c-0.1,0-0.1,0.1,0,0.1l0.2,0.6c0,0.1,0.1,0.1,0.1,0.1c0.3,0,0.6-0.1,0.8-0.2
		v0c0-0.1-0.1-0.5-0.4-0.8C36.8,50.6,36.7,50.6,36.7,50.6"/>
	<polygon class="st1" points="31.8,46 31.8,46 31.5,46.8 31.5,46.9 31.5,46.8 31.8,46 	"/>
	<path class="st1" d="M33.7,52.3c-0.1,0-0.3,0-0.5,0c-0.1,0-0.1,0.1-0.1,0.1l0.1,0.6c0,0.1,0.1,0.1,0.1,0.1c0.2,0,0.4,0,0.8-0.1l0,0
		c0-0.1-0.1-0.4-0.3-0.7C33.9,52.2,33.8,52.2,33.7,52.3"/>
	<path class="st2" d="M36.7,50.2c-0.8-0.6-2.2,0.2-2.4-1.7c-0.1-1.7-0.2-1.9-0.5-2.2l-0.1-0.8c0-0.1-0.1-0.2-0.3-0.2l-1.2,0.2
		c-0.1,0-0.2,0.1-0.2,0.2c0,0,0.1,0,0.2,0.1l0-0.1l0,0l0,0l0,0.1c0.1,0,0.1,0,0.2,0.1l0-0.2l0-0.1l0.1,0l0,0.2c0,0,0.1,0,0.1,0.1
		l0-0.3l0.1-0.1l0.1,0.1l0,0.4c0,0,0.1,0,0.1,0l-0.1-0.4l0.1-0.1l0.1,0.1l0.1,0.5l0,0c0,0,0.1,0,0.1,0.1l-0.1-0.6l0-0.1l0.1,0
		l0.1,0.8c0,0,0,0.1,0,0.1c0,0,0,0.1,0,0.1c0,0-0.2,0.6-0.3,0.7c0,0.1,0.1,0.2,0.1,0.3c0,0.3-0.2,0.6-0.3,0.9
		c-0.1,0.1-0.1,0.2-0.2,0.4c-0.3,0.6-0.4,1-0.4,1.3c0,0.1,0,0.2,0.1,0.3c0-0.2,0-0.3,0.1-0.4c0.2,0.1,0.6,0.2,0.9,0.3
		c0,0,0,0.5,0,0.8l0.1,0.1l0.1,0.1c0.5,0,1.2,0.2,1.6,0.3c0.6,0.2,1.7,0.3,2.3-0.1C37.6,51.5,37.4,50.7,36.7,50.2 M33.5,46.4
		L33.5,46.4l-0.1-0.9l0,0l0,0L33.5,46.4L33.5,46.4z M37.3,51.4c-0.2,0.1-0.5,0.2-0.8,0.2c-0.1,0-0.1,0-0.1-0.1L36.1,51
		c0,0,0-0.1,0-0.1c0,0,0.4-0.2,0.5-0.2c0,0,0.1-0.1,0.2,0C37.1,50.9,37.3,51.3,37.3,51.4L37.3,51.4z"/>
	<path class="st2" d="M33.3,51.4c-0.1,0-0.4-0.3-0.9-0.7c-0.5-0.3-0.4-0.8,0.1-1.9c0.2-0.5,0.7-1.1,0.4-1.5l0.3-0.8
		c0-0.1,0-0.3-0.1-0.3l-1.2-0.4c-0.1,0-0.3,0-0.3,0.1l-0.3,0.8c-0.2,0-0.4,0.4-0.6,1.1c-0.3,1-0.5,1.8-1,2.3
		c-0.6,0.7-0.7,1.6,0.7,1.9c0.8,0.1,1.7,0.9,2.5,1.3c0.2,0.1,0.5,0.2,1.5,0C34.5,53.2,34.5,52.2,33.3,51.4 M30.3,51.7
		c-0.4-0.1-0.7-0.3-0.8-0.5c-0.1-0.2,0-0.6,0.3-0.9c0.3,0.1,0.5,0.3,0.7,0.4C30.4,51,30.3,51.3,30.3,51.7 M33,46.4L33,46.4l-0.3,0.9
		l0,0l0,0L33,46.4L33,46.4z M32.7,46.3L32.7,46.3l-0.3,0.9l-0.1,0l0-0.1L32.7,46.3L32.7,46.3z M32.5,46.2L32.5,46.2l-0.2,0.9l-0.1,0
		l0-0.1L32.5,46.2L32.5,46.2z M31.5,46.9L31.5,46.9l0.3-0.9l0,0l0,0L31.5,46.9L31.5,46.9z M31.7,46.9L31.7,46.9l0.3-0.9l0.1,0l0,0.1
		L31.7,46.9L31.7,46.9z M31.9,47L31.9,47l0.2-0.9l0.1,0l0,0.1L31.9,47L31.9,47z M34.2,53L34.2,53c-0.4,0.1-0.6,0.1-0.8,0.1
		c-0.1,0-0.1,0-0.1-0.1l-0.1-0.6c0-0.1,0-0.1,0.1-0.1c0.2,0,0.4,0,0.5,0c0.1,0,0.1,0,0.1,0C34.1,52.6,34.2,52.9,34.2,53"/>
	<polygon class="st0" points="53.3,59.1 53.7,59.1 53.7,60.2 53.9,60.2 53.9,59.1 54.3,59.1 54.3,58.9 53.3,58.9 	"/>
	<polygon class="st0" points="55.3,59.9 54.9,58.9 54.6,58.9 54.6,60.2 54.8,60.2 54.8,59.1 54.8,59.1 55.2,60.2 55.4,60.2 
		55.8,59.1 55.8,59.1 55.8,60.2 56,60.2 56,58.9 55.7,58.9 	"/>
	<polygon class="st1" points="58,35.2 57.6,35.1 58,35 58,35 57.6,34.8 57.6,34.8 58,34.8 58,34.7 57.5,34.7 57.5,34.8 57.9,35 
		57.5,35.1 57.5,35.2 58,35.3 	"/>
	<polygon class="st1" points="57.5,35.6 57.9,35.6 57.9,35.5 57.5,35.5 57.5,35.3 57.5,35.3 57.4,35.7 57.5,35.7 	"/>
	<polygon class="st2" points="32.5,54 32.6,54 32.6,54.3 32.7,54.3 32.7,54 32.8,54 32.8,54 32.5,54 	"/>
	<polygon class="st2" points="33,54.2 32.9,54 32.8,54 32.8,54.3 32.9,54.3 32.9,54 33,54.3 33,54.3 33.1,54 33.1,54.3 33.1,54.3 
		33.1,54 33.1,54 	"/>
	<polygon class="st1" points="53.8,21.3 54.2,21.1 53.9,21.4 53.9,21.5 54.3,21.4 54.3,21.4 54,21.6 54,21.7 54.5,21.5 54.4,21.4 
		54,21.4 54.3,21.1 54.2,21 53.8,21.2 	"/>
	<polygon class="st1" points="54,20.7 53.6,20.9 53.6,21 54,20.8 54.1,20.9 54.2,20.9 54,20.6 53.9,20.6 	"/>
</g>
</svg>
