<?xml version="1.0"?>
<svg xmlns="http://www.w3.org/2000/svg" height="512px" version="1.1" viewBox="-105 0 575 575.99652" width="512px">
<g id="surface1">
<path d="M 30.546875 283.121094 L 116.488281 435.90625 L 131.1875 480.003906 L 125.300781 480.003906 C 120 480.007812 115.703125 484.304688 115.707031 489.609375 C 115.707031 490.003906 115.730469 490.402344 115.78125 490.796875 L 125.378906 567.589844 C 125.980469 572.394531 130.0625 576 134.902344 576 L 230.894531 576 C 235.734375 576 239.816406 572.394531 240.417969 567.589844 L 250.015625 490.796875 C 250.675781 485.535156 246.945312 480.738281 241.683594 480.078125 C 241.289062 480.03125 240.890625 480.003906 240.496094 480.003906 L 234.609375 480.003906 L 249.308594 435.90625 L 335.25 283.121094 C 335.519531 282.65625 335.738281 282.164062 335.914062 281.652344 C 390.722656 197.140625 366.644531 84.195312 282.132812 29.386719 C 197.621094 -25.425781 84.675781 -1.34375 29.863281 83.167969 C -9.289062 143.539062 -9.289062 221.285156 29.863281 281.652344 C 30.042969 282.164062 30.273438 282.65625 30.546875 283.121094 Z M 130.917969 422.410156 L 98.519531 364.8125 L 122.605469 364.8125 C 130.109375 383.613281 136.484375 402.847656 141.6875 422.410156 Z M 135.601562 345.613281 C 134.410156 342.648438 133.230469 339.644531 132.039062 336.707031 C 113.78125 291.503906 96.503906 248.8125 96.503906 192.023438 C 96.242188 159.148438 102.417969 126.539062 114.675781 96.03125 L 173.300781 96.03125 L 173.300781 345.617188 L 135.601562 345.617188 Z M 173.300781 364.8125 L 173.300781 422.410156 L 161.519531 422.410156 C 156.605469 402.84375 150.460938 383.605469 143.117188 364.8125 Z M 154.101562 556.800781 L 143.378906 556.800781 L 140.976562 537.601562 L 154.101562 537.601562 Z M 154.101562 518.402344 L 138.578125 518.402344 L 136.175781 499.203125 L 154.101562 499.203125 Z M 192.496094 556.800781 L 173.296875 556.800781 L 173.296875 537.601562 L 192.496094 537.601562 Z M 192.496094 518.402344 L 173.296875 518.402344 L 173.296875 499.203125 L 192.496094 499.203125 Z M 222.417969 556.800781 L 211.695312 556.800781 L 211.695312 537.601562 L 224.816406 537.601562 Z M 227.21875 518.402344 L 211.695312 518.402344 L 211.695312 499.203125 L 229.617188 499.203125 Z M 234.898438 422.410156 L 224.109375 422.410156 C 229.3125 402.847656 235.6875 383.613281 243.191406 364.8125 L 267.277344 364.8125 Z M 321.128906 96.03125 C 355.347656 150.359375 354.363281 219.746094 318.613281 273.082031 C 318.054688 273.910156 317.640625 274.828125 317.394531 275.796875 L 278.074219 345.613281 L 250.871094 345.613281 C 251.101562 345.050781 251.332031 344.472656 251.554688 343.90625 C 269.714844 298.992188 288.492188 252.546875 288.492188 192.023438 C 288.730469 159.296875 283.136719 126.792969 271.972656 96.03125 Z M 307.132812 76.832031 L 264.097656 76.832031 C 255.855469 59.019531 245.382812 42.328125 232.929688 27.15625 C 261.78125 36.515625 287.457031 53.714844 307.097656 76.832031 Z M 192.496094 19.726562 C 194.878906 19.859375 197.296875 19.851562 199.65625 20.097656 C 217.191406 36.296875 231.671875 55.515625 242.414062 76.832031 L 192.496094 76.832031 Z M 192.496094 96.03125 L 251.226562 96.03125 C 263.425781 126.550781 269.5625 159.15625 269.292969 192.023438 C 269.292969 248.8125 252.011719 291.503906 233.773438 336.707031 C 232.585938 339.644531 231.402344 342.648438 230.214844 345.613281 L 192.496094 345.613281 Z M 192.496094 364.8125 L 222.675781 364.8125 C 215.335938 383.605469 209.191406 402.84375 204.273438 422.410156 L 192.496094 422.410156 Z M 227.179688 441.609375 L 214.382812 480.003906 L 151.410156 480.003906 L 138.617188 441.609375 Z M 166.164062 20.089844 C 168.519531 19.851562 170.964844 19.859375 173.296875 19.726562 L 173.296875 76.832031 L 123.542969 76.832031 C 134.285156 55.546875 148.714844 36.335938 166.164062 20.089844 Z M 132.867188 27.15625 C 120.414062 42.324219 109.941406 59.019531 101.695312 76.832031 L 58.699219 76.832031 C 78.339844 53.714844 104.015625 36.515625 132.867188 27.15625 Z M 44.667969 96.03125 L 93.785156 96.03125 C 82.636719 126.796875 77.054688 159.300781 77.304688 192.023438 C 77.304688 252.546875 96.082031 298.988281 114.242188 343.90625 C 114.464844 344.472656 114.695312 345.046875 114.925781 345.613281 L 87.71875 345.613281 L 48.507812 275.914062 C 48.238281 274.886719 47.800781 273.914062 47.210938 273.035156 C 11.476562 219.714844 10.476562 150.355469 44.667969 96.03125 Z M 44.667969 96.03125 " style=" fill-rule:nonzero;fill-opacity:1;" stroke="#FFFFFF" fill="#FFFFFF"/>
</g>
</svg>
