<?xml version="1.0" encoding="UTF-8"?>
<svg width="418px" height="512px" viewBox="0 0 418 512" version="1.1" xmlns="http://www.w3.org/2000/svg" xmlns:xlink="http://www.w3.org/1999/xlink">
    <!-- Generator: Sketch 51.2 (57519) - http://www.bohemiancoding.com/sketch -->
    <title>fire</title>
    <desc>Created with Sketch.</desc>
    <defs></defs>
    <g id="Page-1" stroke="none" stroke-width="1" fill="none" fill-rule="evenodd">
        <g id="fire" fill-rule="nonzero">
            <path d="M7.211,249.7 C7.211,249.7 27.439,279.417 69.835,304.571 C69.835,304.571 39.13,45.069 239.193,-5.68434189e-14 C187.936,188.121 304.393,241.174 346.844,141.786 C417.737,236.437 363.91,319.015 363.91,319.015 C392.979,323.203 417.397,291.445 417.397,291.445 C417.615,295.357 417.737,299.296 417.737,303.263 C417.738,418.545 324.283,512 209,512 C93.717,512 0.262,418.545 0.262,303.262 C0.262,284.744 2.686,266.794 7.211,249.7 Z" id="Shape" fill="#FF6536"></path>
            <path d="M417.398,291.445 C417.398,291.445 392.98,323.203 363.911,319.015 C363.911,319.015 417.738,236.437 346.845,141.786 C304.394,241.174 187.937,188.121 239.194,0 C228.479,2.414 218.431,5.447 209,9.018 L209,512 C324.283,512 417.738,418.545 417.738,303.262 C417.738,299.295 417.616,295.357 417.398,291.445 Z" id="Shape" fill="#FF421D"></path>
            <path d="M117.456,420.456 C117.456,471.014 158.442,512 209,512 C259.558,512 300.544,471.014 300.544,420.456 C300.544,393.395 288.803,369.077 270.136,352.318 C234.742,400.403 184.304,327.462 223.612,274.196 C223.612,274.196 117.456,287.499 117.456,420.456 Z" id="Shape" fill="#FBBF00"></path>
            <path d="M300.544,420.456 C300.544,393.395 288.803,369.077 270.136,352.318 C234.742,400.403 184.304,327.462 223.612,274.196 C223.612,274.196 217.844,274.921 209,277.712 L209,512 C259.558,512 300.544,471.014 300.544,420.456 Z" id="Shape" fill="#FFA900"></path>
        </g>
    </g>
</svg>